<svg xmlns="http://www.w3.org/2000/svg" xmlns:xlink="http://www.w3.org/1999/xlink" preserveAspectRatio="xMidYMid meet" width="960" height="540" viewBox="0 0 960 540" style="width:100%;height:100%"><defs><animateTransform repeatCount="indefinite" dur="4.6s" begin="0s" xlink:href="#_R_G_L_38_G" fill="freeze" attributeName="transform" from="1 0" to="1 1" type="scale" additive="sum" keyTimes="0;0.1391304;1" values="1 0;1 1;1 1" keySplines="0.333 0 0.667 1;0.167 0 0.667 1" calcMode="spline"/><animateTransform repeatCount="indefinite" dur="4.6s" begin="0s" xlink:href="#_R_G_L_38_G" fill="freeze" attributeName="transform" from="0 -70" to="0 -70" type="translate" additive="sum" keyTimes="0;1" values="0 -70;0 -70" keySplines="0 0 1 1" calcMode="spline"/><animateTransform repeatCount="indefinite" dur="4.6s" begin="0s" xlink:href="#_R_G_L_37_G" fill="freeze" attributeName="transform" from="1 0" to="1 1" type="scale" additive="sum" keyTimes="0;0.1304348;0.2434783;1" values="1 0;1 0;1 1;1 1" keySplines="0.333 0 0.667 1;0.333 0 0.667 1;0.167 0 0.667 1" calcMode="spline"/><animateTransform repeatCount="indefinite" dur="4.6s" begin="0s" xlink:href="#_R_G_L_37_G" fill="freeze" attributeName="transform" from="0 -62" to="0 -62" type="translate" additive="sum" keyTimes="0;1" values="0 -62;0 -62" keySplines="0 0 1 1" calcMode="spline"/><animateTransform repeatCount="indefinite" dur="4.6s" begin="0s" xlink:href="#_R_G_L_36_G" fill="freeze" attributeName="transform" from="1 0" to="1 1" type="scale" additive="sum" keyTimes="0;0.2347826;0.3304348;1" values="1 0;1 0;1 1;1 1" keySplines="0.333 0 0.667 1;0.333 0 0.667 1;0.167 0 0.667 1" calcMode="spline"/><animateTransform repeatCount="indefinite" dur="4.6s" begin="0s" xlink:href="#_R_G_L_36_G" fill="freeze" attributeName="transform" from="0 -53" to="0 -53" type="translate" additive="sum" keyTimes="0;1" values="0 -53;0 -53" keySplines="0 0 1 1" calcMode="spline"/><animateTransform repeatCount="indefinite" dur="4.6s" begin="0s" xlink:href="#_R_G_L_35_G" fill="freeze" attributeName="transform" from="1 0" to="1 1" type="scale" additive="sum" keyTimes="0;0.3217391;0.4;1" values="1 0;1 0;1 1;1 1" keySplines="0.333 0 0.667 1;0.333 0 0.667 1;0.167 0 0.667 1" calcMode="spline"/><animateTransform repeatCount="indefinite" dur="4.6s" begin="0s" xlink:href="#_R_G_L_35_G" fill="freeze" attributeName="transform" from="0 -53" to="0 -53" type="translate" additive="sum" keyTimes="0;1" values="0 -53;0 -53" keySplines="0 0 1 1" calcMode="spline"/><animateTransform repeatCount="indefinite" dur="4.6s" begin="0s" xlink:href="#_R_G_L_34_G" fill="freeze" attributeName="transform" from="1 0" to="1 1" type="scale" additive="sum" keyTimes="0;0.2869565;0.3391304;1" values="1 0;1 0;1 1;1 1" keySplines="0.333 0 0.667 1;0.333 0 0.667 1;0.167 0 0.667 1" calcMode="spline"/><animateTransform repeatCount="indefinite" dur="4.6s" begin="0s" xlink:href="#_R_G_L_34_G" fill="freeze" attributeName="transform" from="0 -7.5" to="0 -7.5" type="translate" additive="sum" keyTimes="0;1" values="0 -7.5;0 -7.5" keySplines="0 0 1 1" calcMode="spline"/><animateTransform repeatCount="indefinite" dur="4.6s" begin="0s" xlink:href="#_R_G_L_15_G" fill="freeze" attributeName="transform" from="1 1" to="1.3 1.3" type="scale" additive="sum" keyTimes="0;0.4521739;0.5391304;1" values="1 1;1 1;1.3 1.3;1.3 1.3" keySplines="0.333 0 0.667 1;0.333 0 0.667 1;0.333 0 0.667 1" calcMode="spline"/><animateTransform repeatCount="indefinite" dur="4.6s" begin="0s" xlink:href="#_R_G_L_15_G" fill="freeze" attributeName="transform" from="29.912 7.997" to="29.912 7.997" type="translate" additive="sum" keyTimes="0;1" values="29.912 7.997;29.912 7.997" keySplines="0 0 1 1" calcMode="spline"/><animateTransform repeatCount="indefinite" dur="4.6s" begin="0s" xlink:href="#_R_G_L_13_G_N_16_T_0" fill="freeze" attributeName="transform" from="1 1" to="1.3 1.3" type="scale" additive="sum" keyTimes="0;0.4521739;0.5391304;1" values="1 1;1 1;1.3 1.3;1.3 1.3" keySplines="0.333 0 0.667 1;0.333 0 0.667 1;0.333 0 0.667 1" calcMode="spline"/><animateTransform repeatCount="indefinite" dur="4.6s" begin="0s" xlink:href="#_R_G_L_13_G_N_16_T_0" fill="freeze" attributeName="transform" from="29.912 7.997" to="29.912 7.997" type="translate" additive="sum" keyTimes="0;1" values="29.912 7.997;29.912 7.997" keySplines="0 0 1 1" calcMode="spline"/><animateTransform repeatCount="indefinite" dur="4.6s" begin="0s" xlink:href="#_R_G_L_11_G_N_16_T_0" fill="freeze" attributeName="transform" from="1 1" to="1.3 1.3" type="scale" additive="sum" keyTimes="0;0.4521739;0.5391304;1" values="1 1;1 1;1.3 1.3;1.3 1.3" keySplines="0.333 0 0.667 1;0.333 0 0.667 1;0.333 0 0.667 1" calcMode="spline"/><animateTransform repeatCount="indefinite" dur="4.6s" begin="0s" xlink:href="#_R_G_L_11_G_N_16_T_0" fill="freeze" attributeName="transform" from="29.912 7.997" to="29.912 7.997" type="translate" additive="sum" keyTimes="0;1" values="29.912 7.997;29.912 7.997" keySplines="0 0 1 1" calcMode="spline"/><animateTransform repeatCount="indefinite" dur="4.6s" begin="0s" xlink:href="#_R_G_L_7_G_N_4_T_0" fill="freeze" attributeName="transform" from="1 1" to="1.7 1.7" type="scale" additive="sum" keyTimes="0;0.4521739;0.5391304;1" values="1 1;1 1;1.7 1.7;1.7 1.7" keySplines="0.333 0 0.667 1;0.333 0 0.667 1;0.333 0 0.667 1" calcMode="spline"/><animateTransform repeatCount="indefinite" dur="4.6s" begin="0s" xlink:href="#_R_G_L_7_G_N_4_T_0" fill="freeze" attributeName="transform" from="-22.956 5.888" to="-22.956 5.888" type="translate" additive="sum" keyTimes="0;1" values="-22.956 5.888;-22.956 5.888" keySplines="0 0 1 1" calcMode="spline"/><animateTransform repeatCount="indefinite" dur="4.6s" begin="0s" xlink:href="#_R_G_L_6_G_N_4_T_0" fill="freeze" attributeName="transform" from="1 1" to="1.7 1.7" type="scale" additive="sum" keyTimes="0;0.4521739;0.5391304;1" values="1 1;1 1;1.7 1.7;1.7 1.7" keySplines="0.333 0 0.667 1;0.333 0 0.667 1;0.333 0 0.667 1" calcMode="spline"/><animateTransform repeatCount="indefinite" dur="4.6s" begin="0s" xlink:href="#_R_G_L_6_G_N_4_T_0" fill="freeze" attributeName="transform" from="-22.956 5.888" to="-22.956 5.888" type="translate" additive="sum" keyTimes="0;1" values="-22.956 5.888;-22.956 5.888" keySplines="0 0 1 1" calcMode="spline"/><animateTransform repeatCount="indefinite" dur="4.6s" begin="0s" xlink:href="#_R_G_L_4_G_N_16_T_0" fill="freeze" attributeName="transform" from="1 1" to="1.3 1.3" type="scale" additive="sum" keyTimes="0;0.4521739;0.5391304;1" values="1 1;1 1;1.3 1.3;1.3 1.3" keySplines="0.333 0 0.667 1;0.333 0 0.667 1;0.333 0 0.667 1" calcMode="spline"/><animateTransform repeatCount="indefinite" dur="4.6s" begin="0s" xlink:href="#_R_G_L_4_G_N_16_T_0" fill="freeze" attributeName="transform" from="29.912 7.997" to="29.912 7.997" type="translate" additive="sum" keyTimes="0;1" values="29.912 7.997;29.912 7.997" keySplines="0 0 1 1" calcMode="spline"/><animateTransform repeatCount="indefinite" dur="4.6s" begin="0s" xlink:href="#_R_G_L_3_G" fill="freeze" attributeName="transform" from="1 1" to="1.7 1.7" type="scale" additive="sum" keyTimes="0;0.4521739;0.5391304;1" values="1 1;1 1;1.7 1.7;1.7 1.7" keySplines="0.333 0 0.667 1;0.333 0 0.667 1;0.333 0 0.667 1" calcMode="spline"/><animateTransform repeatCount="indefinite" dur="4.6s" begin="0s" xlink:href="#_R_G_L_3_G" fill="freeze" attributeName="transform" from="-22.956 5.888" to="-22.956 5.888" type="translate" additive="sum" keyTimes="0;1" values="-22.956 5.888;-22.956 5.888" keySplines="0 0 1 1" calcMode="spline"/><animateMotion repeatCount="indefinite" dur="4.6s" begin="0s" xlink:href="#_R_G_L_15_G" fill="freeze" keyTimes="0;0.4521739;0.5391304;1" path="M754.09 344.75 C754.09,344.75 754.09,344.75 754.09,344.75 C754.09,343.67 754.09,339.34 754.09,338.25 C754.09,338.25 754.09,338.25 754.09,338.25" keyPoints="0;0;1;1" keySplines="0.333 0 0.667 1;0.333 0 0.667 1;0.333 0.333 0.667 0.667" calcMode="spline"/><animateMotion repeatCount="indefinite" dur="4.6s" begin="0s" xlink:href="#_R_G_L_13_G_N_16_T_0" fill="freeze" keyTimes="0;0.4521739;0.5391304;1" path="M754.09 344.75 C754.09,344.75 754.09,344.75 754.09,344.75 C754.09,343.67 754.09,339.34 754.09,338.25 C754.09,338.25 754.09,338.25 754.09,338.25" keyPoints="0;0;1;1" keySplines="0.333 0 0.667 1;0.333 0 0.667 1;0.333 0.333 0.667 0.667" calcMode="spline"/><animateMotion repeatCount="indefinite" dur="4.6s" begin="0s" xlink:href="#_R_G_L_11_G_N_16_T_0" fill="freeze" keyTimes="0;0.4521739;0.5391304;1" path="M754.09 344.75 C754.09,344.75 754.09,344.75 754.09,344.75 C754.09,343.67 754.09,339.34 754.09,338.25 C754.09,338.25 754.09,338.25 754.09,338.25" keyPoints="0;0;1;1" keySplines="0.333 0 0.667 1;0.333 0 0.667 1;0.333 0.333 0.667 0.667" calcMode="spline"/><animateMotion repeatCount="indefinite" dur="4.6s" begin="0s" xlink:href="#_R_G_L_4_G_N_16_T_0" fill="freeze" keyTimes="0;0.4521739;0.5391304;1" path="M754.09 344.75 C754.09,344.75 754.09,344.75 754.09,344.75 C754.09,343.67 754.09,339.34 754.09,338.25 C754.09,338.25 754.09,338.25 754.09,338.25" keyPoints="0;0;1;1" keySplines="0.333 0 0.667 1;0.333 0 0.667 1;0.333 0.333 0.667 0.667" calcMode="spline"/><animate attributeType="XML" attributeName="opacity" dur="5s" from="0" to="1" xlink:href="#time_group"/></defs><g id="_R_G"><g id="_R_G_L_51_G" transform="translate(480 270)"><path id="_R_G_L_51_G_D_0_P_0" fill="#ebf1f4" fill-opacity="1" fill-rule="nonzero" d="M480-264v528a6 6 0 0 1-6 6h-948a6 6 0 0 1-6-6v-528a6 6 0 0 1 6-6h948a6 6 0 0 1 6 6z"/></g><g id="_R_G_L_50_G" transform="translate(480 291.5)"><path id="_R_G_L_50_G_D_0_P_0" fill="#fff" fill-opacity="1" fill-rule="nonzero" d="M467-229.5v459a6 6 0 0 1-6 6h-922a6 6 0 0 1-6-6v-459a6 6 0 0 1 6-6h922a6 6 0 0 1 6 6z"/></g><g id="_R_G_L_49_G" transform="translate(484.5 330.5)"><path id="_R_G_L_49_G_D_0_P_0" fill="#d9d9d9" fill-opacity="1" fill-rule="nonzero" d="M439.5-.5v1h-879v-1h879z"/></g><g id="_R_G_L_48_G" transform="translate(45.5 257.5)"><path id="_R_G_L_48_G_D_0_P_0" fill="#d9d9d9" fill-opacity="1" fill-rule="nonzero" d="M.5-73.5v147h-1v-147h1z"/></g><g id="_R_G_L_47_G" transform="translate(480 465)"><path id="_R_G_L_47_G_D_0_P_0" fill="#fbfbfb" fill-opacity="1" fill-rule="nonzero" d="M467-56V56a6 6 0 0 1-6 6h-922a6 6 0 0 1-6-6V-56a6 6 0 0 1 6-6h922a6 6 0 0 1 6 6z"/></g><g id="_R_G_L_46_G" transform="translate(79 35.5)" fill="#252526" fill-opacity="1" fill-rule="nonzero"><path id="_R_G_L_46_G_D_0_P_0" d="M65.4-16.5h-2V1.7h2v-18.2z"/><path id="_R_G_L_46_G_D_1_P_0" d="M56.7-9.3c.5.4.8.8 1 1.4.3.6.4 1.3.4 2h-6.8c.1-1.2.5-2.1 1.1-2.8.6-.7 1.5-1 2.5-1 .7 0 1.3.1 1.8.4zM52-10.5c-.8.5-1.5 1.3-2 2.3-.4 1-.6 2.2-.6 3.6S49.5-2 50-1c.5 1 1.3 1.7 2.2 2.2.9.5 2 .8 3.2.8.9 0 1.6 0 2.3-.2a10 10 0 0 0 1.9-.7V-.6l-2 .7-2.1.2a4 4 0 0 1-3-1.2c-.8-.8-1.2-2-1.2-3.4h8.9v-1.2c0-1.2-.3-2.2-.7-3-.4-1-1-1.6-1.8-2.1-.7-.5-1.7-.7-2.8-.7-1.1 0-2.1.2-3 .8z"/><path id="_R_G_L_46_G_D_2_P_0" d="m39.7-11.1-1.4.7a4 4 0 0 0-1 1.2H37l-.3-1.9h-1.5V1.7h2V-5a6 6 0 0 1 .8-3.5c.6-.8 1.6-1.2 3-1.2 1 0 1.7.3 2.2.8.5.5.8 1.3.8 2.4v8.2H46v-8.3c0-1.7-.4-2.9-1.2-3.6-.8-.8-2-1.1-3.4-1.1-.6 0-1.2 0-1.7.2z"/><path id="_R_G_L_46_G_D_3_P_0" d="m25-11.1-1.4.7c-.5.3-.8.7-1 1.2h-.2l-.3-1.9h-1.6V1.7h2V-5a6 6 0 0 1 .9-3.5c.5-.8 1.5-1.2 3-1.2 1 0 1.7.3 2.2.8.5.5.7 1.3.7 2.4v8.2h2v-8.3c0-1.7-.4-2.9-1.2-3.6-.8-.8-2-1.1-3.5-1.1-.6 0-1.1 0-1.6.2z"/><path id="_R_G_L_46_G_D_4_P_0" d="M14.5-11.1v6.8c0 1-.2 1.8-.4 2.5a3 3 0 0 1-1.2 1.6c-.6.4-1.3.6-2.3.6-1 0-1.7-.3-2.2-.8-.5-.6-.7-1.4-.7-2.4v-8.3h-2v8.4c0 1 .2 2 .5 2.7.4.7.9 1.1 1.6 1.5.6.3 1.5.5 2.5.5.6 0 1.2-.1 1.7-.3A3.7 3.7 0 0 0 14.4 0h.2l.2 1.8h1.6V-11h-2z"/><path id="_R_G_L_46_G_D_5_P_0" d="M3.5-11.1H.3v-1c0-1 .2-1.7.5-2.2.4-.5 1-.7 1.7-.7h1l.9.3.5-1.5a8.1 8.1 0 0 0-2.5-.4c-.8 0-1.6.1-2.2.5-.6.3-1 .8-1.4 1.5-.3.6-.5 1.5-.5 2.6v.8l-2.2.7v1h2.2V1.6h2V-9.6h3.2V-11z"/><path id="_R_G_L_46_G_D_6_P_0" d="M-12-3.5c-.4-.5-.8-.8-1.4-1.2l-2.1-.9-2-.8c-.5-.2-.8-.4-1-.7-.3-.3-.4-.6-.4-1 0-.5.3-.9.8-1.2a4 4 0 0 1 2-.4 7 7 0 0 1 1.9.2c.6.2 1.1.3 1.6.6l.7-1.6a10.2 10.2 0 0 0-4-.8c-1.5 0-2.6.3-3.5.8-.9.6-1.3 1.4-1.3 2.5 0 .8.1 1.3.4 1.8.4.4.8.8 1.4 1.1l2.2 1c.8.2 1.4.5 1.9.8.5.2.8.5 1 .8.2.2.3.5.3.9 0 .6-.3 1-.8 1.5-.4.3-1.3.5-2.4.5a8 8 0 0 1-2.2-.3l-1.9-.7v1.8l1.8.6a11.4 11.4 0 0 0 5-.3c.8-.2 1.4-.7 1.8-1.2.4-.6.6-1.3.6-2a3 3 0 0 0-.5-1.8z"/><path id="_R_G_L_46_G_D_7_P_0" d="M-26.7-9.3c.5.4.8.8 1 1.4.3.6.4 1.3.4 2H-32c.2-1.2.5-2.1 1.1-2.8.7-.7 1.5-1 2.5-1 .8 0 1.4.1 1.8.4zm-4.7-1.2c-.9.5-1.6 1.3-2 2.3-.5 1-.7 2.2-.7 3.6s.2 2.6.8 3.6c.5 1 1.2 1.7 2 2.2 1 .5 2 .8 3.3.8.9 0 1.6 0 2.3-.2a10 10 0 0 0 1.9-.7V-.6l-2 .7-2.1.2a4 4 0 0 1-3-1.2c-.8-.8-1.2-2-1.2-3.4h8.9v-1.2c0-1.2-.2-2.2-.6-3-.5-1-1-1.6-1.8-2.1s-1.8-.7-2.8-.7c-1.2 0-2.2.2-3 .8z"/><path id="_R_G_L_46_G_D_8_P_0" d="M-37.5-16.5h-2V1.7h2v-18.2z"/><path id="_R_G_L_46_G_D_9_P_0" d="M-45.4-3.4c0 1.3-.4 2.2-1 2.8a4 4 0 0 1-2.9 1c-.7 0-1.3-.2-1.7-.5-.5-.4-.7-1-.7-1.7 0-.8.3-1.5 1-2 .6-.4 1.8-.6 3.4-.7h2v1.1zm-5-7.6-2 .8.6 1.4 1.8-.6c.6-.3 1.2-.3 2-.3s1.5.2 2 .6c.4.5.6 1.3.6 2.4v.7l-2.2.1c-2 .1-3.6.5-4.6 1.2-1 .7-1.5 1.6-1.5 3 0 .8.1 1.5.5 2 .3.6.8 1 1.4 1.3a6.3 6.3 0 0 0 4 .2 4 4 0 0 0 1.3-.8 7 7 0 0 0 1.1-1.2h.1l.4 2h1.4V-7c0-1.5-.3-2.6-1-3.3-.8-.7-2-1-3.5-1-.8 0-1.6 0-2.4.3z"/><path id="_R_G_L_46_G_D_10_P_0" d="M-56.5-5c-.4-.7-1-1.2-1.6-1.6-.8-.4-1.6-.8-2.6-1.1l-2.2-1c-.6-.3-1-.7-1.3-1-.2-.5-.3-1-.3-1.6 0-.5.1-1 .4-1.3.2-.4.6-.7 1.1-1 .5-.2 1.1-.3 1.9-.3a9 9 0 0 1 2.1.3l2 .6.6-1.7a11 11 0 0 0-7.5-.4c-.8.3-1.5.8-2 1.5a4 4 0 0 0-.6 2.3c0 .7 0 1.3.2 1.8s.5 1 .9 1.4c.4.3.8.7 1.4 1l2 .9c1 .3 1.8.7 2.4 1 .6.3 1 .7 1.2 1 .3.5.4 1 .4 1.6 0 .6-.1 1-.4 1.5a3 3 0 0 1-1.4 1 6 6 0 0 1-2.2.3c-.9 0-1.8 0-2.6-.3l-2.2-.6v1.9l1.3.4 1.6.3h1.8c1.3 0 2.3-.1 3.2-.5 1-.4 1.6-1 2.2-1.6.5-.7.7-1.6.7-2.6s-.2-1.7-.5-2.3z"/></g><g id="_R_G_L_45_G" transform="translate(81.5 125)" fill="#252526" fill-opacity="1" fill-rule="nonzero"><path id="_R_G_L_45_G_D_0_P_0" d="M44.2-11h-1.6V1.2h1.6V-11z"/><path id="_R_G_L_45_G_D_1_P_0" d="M38-6c.3.1.5.4.6.8.2.3.3.7.3 1.2h-4.3c.1-.8.3-1.3.7-1.8a2 2 0 0 1 1.6-.6c.4 0 .8.1 1 .3zm-3.2-1c-.6.3-1 .8-1.3 1.5-.3.7-.5 1.5-.5 2.4 0 1 .2 1.8.5 2.4.4.7.9 1.2 1.5 1.5.6.3 1.4.5 2.2.5l1.5-.1L40 .8V-.6l-1.3.5-1.5.1c-.8 0-1.4-.2-1.9-.7-.4-.5-.7-1.2-.7-2.1h5.9v-1c0-.7-.2-1.4-.5-2-.3-.5-.7-1-1.2-1.3-.5-.3-1.2-.5-2-.5-.7 0-1.4.2-2 .5z"/><path id="_R_G_L_45_G_D_2_P_0" d="m26.7-7.5-1 .5c-.2.2-.5.5-.6.8H25l-.3-1.3h-1.2v8.7H25v-4.4c0-1 .1-1.8.5-2.3.4-.5 1-.8 1.9-.8.6 0 1 .2 1.4.5.3.4.4.9.4 1.6v5.4H31v-5.7c0-1-.3-1.9-.8-2.4-.6-.5-1.3-.7-2.3-.7l-1.1.1z"/><path id="_R_G_L_45_G_D_3_P_0" d="m16.7-7.5-1 .5c-.2.2-.5.5-.6.8H15l-.3-1.3h-1.2v8.7h1.6v-4.4c0-1 .2-1.8.5-2.3.4-.5 1-.8 1.9-.8.6 0 1 .2 1.4.5.3.4.4.9.4 1.6v5.4H21v-5.7c0-1-.3-1.9-.8-2.4-.6-.5-1.3-.7-2.3-.7l-1.1.1z"/><path id="_R_G_L_45_G_D_4_P_0" d="M9.2-7.5V-3c0 .6 0 1.2-.2 1.6-.1.5-.4.8-.8 1-.3.3-.8.4-1.4.4-.6 0-1-.1-1.3-.5C5.2-.8 5-1.3 5-2v-5.4H3.4v5.6c0 .7.1 1.3.4 1.8.2.4.6.8 1 1 .5.2 1 .3 1.7.3l1.1-.1 1-.5.7-.7.3 1.2h1.2v-8.6H9.2z"/><path id="_R_G_L_45_G_D_5_P_0" d="M2-7.5H-.1V-8c0-.5 0-1 .3-1.3.2-.3.6-.4 1-.4h.7l.6.2.4-1.2a5.4 5.4 0 0 0-1.8-.3c-.6 0-1 .1-1.5.3-.4.2-.7.6-1 1a4 4 0 0 0-.3 1.7v.6l-1.5.5v.8h1.5v7.4H0v-7.4h2v-1.3z"/><path id="_R_G_L_45_G_D_6_P_0" d="M-8.6-2.4c-.2-.3-.5-.6-.9-.8a10 10 0 0 0-1.3-.6l-1.3-.5-.7-.5a.9.9 0 0 1-.2-.6c0-.3.2-.5.5-.7.3-.2.7-.3 1.2-.3.4 0 .8 0 1.2.2l1.2.4.5-1.2a7.3 7.3 0 0 0-2.8-.6c-1 0-1.8.2-2.4.6a2 2 0 0 0-.9 1.7c0 .5.1.9.3 1.2.2.3.5.5 1 .7.3.3.8.5 1.3.7l1.3.5.6.5.2.6c0 .4-.1.7-.4.9-.4.2-.8.3-1.5.3-.5 0-1 0-1.5-.2l-1.3-.5V.8l1.2.4A7.7 7.7 0 0 0-9.9 1c.6-.2 1-.4 1.2-.8.3-.4.4-.9.4-1.5a2 2 0 0 0-.3-1.1z"/><path id="_R_G_L_45_G_D_7_P_0" d="M-18.5-6c.3.1.5.4.6.8.2.3.2.7.2 1.2h-4.2c0-.8.3-1.3.7-1.8a2 2 0 0 1 1.5-.6c.5 0 .9.1 1.2.3zm-3.2-1c-.6.3-1 .8-1.4 1.5-.3.7-.4 1.5-.4 2.4 0 1 .1 1.8.5 2.4.3.7.8 1.2 1.5 1.5.6.3 1.3.5 2.1.5l1.6-.1 1.3-.4V-.6l-1.3.5-1.5.1c-.8 0-1.4-.2-2-.7-.4-.5-.6-1.2-.6-2.1h5.8v-1c0-.7-.1-1.4-.4-2-.3-.5-.7-1-1.2-1.3-.6-.3-1.2-.5-2-.5s-1.4.2-2 .5z"/><path id="_R_G_L_45_G_D_8_P_0" d="M-25.7-11h-1.6V1.2h1.6V-11z"/><path id="_R_G_L_45_G_D_9_P_0" d="M-31.5-2.3c0 .8-.2 1.4-.6 1.8-.5.4-1 .6-1.8.6-.4 0-.8-.1-1-.3-.3-.2-.5-.6-.5-1 0-.6.2-1 .6-1.3.4-.3 1.1-.4 2.1-.5h1.2v.8zm-3.2-5a7 7 0 0 0-1.4.4l.5 1.2 1.2-.5 1.2-.2c.6 0 1 .2 1.3.4.3.3.4.8.4 1.5v.5h-1.4c-1.4 0-2.4.3-3 .8-.8.4-1.1 1-1.1 2 0 .5.1 1 .4 1.4.2.4.5.6 1 .8.3.2.8.3 1.3.3l1.2-.1 1-.5.7-.8.4 1.3h1v-5.9c0-1-.2-1.7-.7-2.2-.5-.5-1.3-.7-2.4-.7-.5 0-1.1 0-1.6.2z"/><path id="_R_G_L_45_G_D_10_P_0" d="M-38.8-3.4a3 3 0 0 0-1-1c-.5-.3-1-.6-1.7-.8L-43-6a2 2 0 0 1-.8-.6c-.2-.3-.3-.6-.3-1 0-.3.1-.6.3-.8.1-.2.4-.4.7-.5.3-.2.7-.2 1.1-.2l1.4.1 1.3.5.5-1.3a8.5 8.5 0 0 0-3.1-.7c-.8 0-1.4 0-2 .3A3 3 0 0 0-45-9c-.3.5-.4 1-.4 1.7 0 .4 0 .8.2 1.2l.5 1 1 .6 1.1.5 1.6.7.8.7c.2.2.3.5.3.9s-.1.7-.3 1l-.8.5c-.4.2-.8.3-1.3.3l-1.8-.3-1.5-.5V.8l.9.3a8 8 0 0 0 2.3.2c.8 0 1.5-.1 2.1-.4.6-.2 1.1-.6 1.4-1 .4-.6.6-1.1.6-1.8 0-.6-.2-1.1-.4-1.5z"/></g><g id="_R_G_L_44_G" transform="translate(84 87)"><path id="_R_G_L_44_G_D_0_P_0" fill="#b8edfd" fill-opacity="1" fill-rule="nonzero" d="M44-9V9h-88V-9h88z"/></g><g id="_R_G_L_43_G" transform="translate(77.5 90)" fill="#44494d" fill-opacity="1" fill-rule="nonzero"><path id="_R_G_L_43_G_D_0_P_0" d="m28.8-1.7-.5-.5-.9-.4-.7-.3-.4-.3-.1-.3c0-.2 0-.3.2-.4l.7-.1h.7l.8.4.3-1-.8-.2-1-.1c-.6 0-1.1.1-1.5.4-.4.2-.6.6-.6 1l.2.8c.2.2.3.4.6.5l.8.4.8.4c.2 0 .3.2.4.3v.3c0 .2 0 .3-.2.5l-.8.1-.9-.1-.8-.3v1a3.9 3.9 0 0 0 1.7.3c.5 0 .9 0 1.2-.2l.8-.5.2-1c0-.3 0-.5-.2-.7z"/><path id="_R_G_L_43_G_D_1_P_0" d="m21.4.6-.2.5c0 .2-.2.3-.3.5a1 1 0 0 1-.3.3l-.6.2h-.3l-.3-.1v1h.8c.3 0 .6 0 .9-.2l.7-.6.4-.9 2.4-6.1h-1.3l-1 3a7.6 7.6 0 0 0-.4 1.3V-1l-.2-.4-.1-.4-1.1-3.1h-1.3L21.4.6z"/><path id="_R_G_L_43_G_D_2_P_0" d="M17.3-1.5c0 .4-.1.8-.4 1-.3.2-.6.3-1 .3a1 1 0 0 1-.6-.2c-.2 0-.3-.3-.3-.5 0-.3.2-.6.4-.8l1.2-.3h.7v.5zm-2-3.3-.9.4.4.8.7-.3.8-.1c.3 0 .6 0 .7.2.2.2.3.4.3.8v.3h-1c-.8 0-1.4.2-1.8.5-.4.3-.7.7-.7 1.3l.3.9c.1.2.3.4.6.5l.8.2.8-.1.6-.3.5-.5.2.8h.8V-3c0-.7-.1-1.2-.5-1.5-.3-.3-.9-.4-1.5-.4l-1.1.1z"/><path id="_R_G_L_43_G_D_3_P_0" d="M9.2-.7c-.2-.3-.3-.8-.3-1.4 0-.6 0-1 .3-1.4a1 1 0 0 1 1-.5c.5 0 .8.2 1 .5.2.3.3.8.3 1.4v.2c0 .5-.1 1-.3 1.2-.2.3-.6.5-1 .5a1 1 0 0 1-1-.5zM10.6.6c.2 0 .3-.2.5-.3l.3-.4.3.7h.9V-7h-1.2v2.5l.1.4-.4-.4a1.8 1.8 0 0 0-1.3-.4 2 2 0 0 0-1.5.7c-.4.5-.6 1.2-.6 2.1 0 1 .2 1.6.6 2 .4.6.9.8 1.5.8l.8-.1z"/><path id="_R_G_L_43_G_D_4_P_0" d="M.6-4.5c0-.4.2-.7.4-.9.2-.2.4-.3.7-.3.3 0 .6.1.8.3.2.2.3.5.4 1a8 8 0 0 1 0 3l-.4.8a1 1 0 0 1-.8.3A1 1 0 0 1 1-.6C.8-.8.7-1 .6-1.5L.5-3v-1.5zM3.9-5c-.2-.5-.4-1-.8-1.2a2 2 0 0 0-1.4-.5c-.6 0-1 .2-1.4.5C0-6-.3-5.5-.5-5l-.2 2c0 .7 0 1.3.3 1.9.1.6.4 1 .8 1.3.3.3.8.4 1.3.4S2.5.7 3 .5l.7-.8.4-1.1A8 8 0 0 0 4-5z"/><path id="_R_G_L_43_G_D_5_P_0" d="M-2.4-6.2c-.4-.3-1-.4-1.7-.4a3.7 3.7 0 0 0-2.3.7l.6.8.4-.3.6-.2h.6c.4 0 .7 0 1 .2l.2.7c0 .2 0 .4-.2.6 0 .2-.3.3-.5.4l-1 .2h-.6v.9h.6l1 .1c.3 0 .5.2.7.4l.2.6c0 .4-.2.7-.4 1-.3.1-.7.3-1.3.3-.3 0-.6 0-1-.2l-1-.3v1a5 5 0 0 0 3.7.1A2 2 0 0 0-2-.3c.2-.4.3-.7.3-1.1 0-.5-.2-.9-.5-1.2-.3-.3-.7-.4-1.3-.5l.8-.4c.3-.1.4-.3.6-.6l.2-.8c0-.5-.2-1-.6-1.3z"/><path id="_R_G_L_43_G_D_6_P_0" d="m-11.1-.4-.2-.6v-3h1.5v-.8h-1.5V-6h-.7l-.4 1.2-.8.4v.5h.7V-1c0 .4.1.8.3 1 0 .3.3.4.5.5.3.2.5.2.9.2a3.2 3.2 0 0 0 1-.2v-.9a3.3 3.3 0 0 1-.8.2l-.5-.2z"/><path id="_R_G_L_43_G_D_7_P_0" d="M-14-1.7c-.1-.2-.3-.4-.6-.5a5 5 0 0 0-.8-.4l-.7-.3-.4-.3-.1-.3c0-.2 0-.3.2-.4l.7-.1h.7l.7.4.4-1-.9-.2-1-.1c-.5 0-1 .1-1.4.4-.4.2-.6.6-.6 1s0 .6.2.8l.5.5.9.4.8.4c.2 0 .3.2.4.3v.3c0 .2 0 .3-.2.5l-.8.1-1-.1-.8-.3v1a3.9 3.9 0 0 0 1.8.3c.4 0 .8 0 1.2-.2.3-.1.6-.3.7-.5.2-.3.3-.6.3-1 0-.3 0-.5-.2-.7z"/><path id="_R_G_L_43_G_D_8_P_0" d="M-20.2-1.5c0 .4-.1.8-.4 1-.2.2-.6.3-1 .3a1 1 0 0 1-.6-.2c-.2 0-.2-.3-.2-.5 0-.3 0-.6.3-.8l1.2-.3h.7v.5zm-2-3.3-.9.4.4.8.7-.3.8-.1c.3 0 .6 0 .8.2l.2.8v.3h-1c-.8 0-1.4.2-1.8.5-.4.3-.6.7-.6 1.3 0 .3 0 .6.2.9.1.2.3.4.6.5l.9.2.7-.1c.3 0 .4-.2.6-.3l.5-.5.2.8h.8V-3c0-.7-.1-1.2-.5-1.5-.3-.3-.8-.4-1.5-.4l-1 .1z"/><path id="_R_G_L_43_G_D_9_P_0" d="M-24.4.6v-1h-3v-6.1h-1.2V.6h4.2z"/></g><g id="_R_G_L_42_G" transform="translate(480.5 87)"><path id="_R_G_L_42_G_D_0_P_0" stroke="#e4e4e4" stroke-linecap="round" stroke-linejoin="round" fill="none" stroke-width="1" stroke-opacity="1" d="M445.5-14v28h-891v-28h891z"/></g><g id="_R_G_L_41_G" transform="translate(117.1 87.1)"><path id="_R_G_L_41_G_D_0_P_0" fill="#a8d6ef" fill-opacity="1" fill-rule="nonzero" d="M-1.4-2.1 2 1.4l-.7.7L-2-1.4l.7-.7z"/></g><g id="_R_G_L_40_G" transform="translate(117.1 87.1)"><path id="_R_G_L_40_G_D_0_P_0" fill="#a8d6ef" fill-opacity="1" fill-rule="nonzero" d="M2.1-1.4-1.4 2l-.7-.7L1.4-2l.7.7z"/></g><g id="_R_G_L_39_G" transform="translate(480.5 139.5)"><path id="_R_G_L_39_G_D_0_P_0" fill="#d9d9d9" fill-opacity="1" fill-rule="nonzero" d="M445.5-.5v1h-891v-1h891z"/></g><g id="_R_G_L_38_G" transform="translate(149 331)"><path id="_R_G_L_38_G_D_0_P_0" fill="#6da4e3" fill-opacity="1" fill-rule="nonzero" d="M85-70V70H-85V-70H85z"/></g><g id="_R_G_L_37_G" transform="translate(322 331)"><path id="_R_G_L_37_G_D_0_P_0" fill="#7bc1ed" fill-opacity="1" fill-rule="nonzero" d="M85-62V62H-85V-62H85z"/></g><g id="_R_G_L_36_G" transform="translate(494 331)"><path id="_R_G_L_36_G_D_0_P_0" fill="#9fd158" fill-opacity="1" fill-rule="nonzero" d="M84-53V53H-84V-53H84z"/></g><g id="_R_G_L_35_G" transform="translate(839 331)"><path id="_R_G_L_35_G_D_0_P_0" fill="#9fd158" fill-opacity="1" fill-rule="nonzero" d="M85-53V53H-85V-53H85z"/></g><g id="_R_G_L_34_G" transform="translate(666 331)"><path id="_R_G_L_34_G_D_0_P_0" fill="#db6c5f" fill-opacity="1" fill-rule="nonzero" d="M85-7.5v15H-85v-15H85z"/></g><g id="_R_G_L_33_G" transform="translate(81 355)" fill="#39393b" fill-opacity="1" fill-rule="nonzero"><path id="_R_G_L_33_G_D_0_P_0" d="M16-1.6c-.2-.3-.4-.5-.7-.6l-1-.5a29.4 29.4 0 0 1-1.4-.7l-.1-.4c0-.2 0-.4.3-.5l.8-.1.9.1.9.3.4-1a5.8 5.8 0 0 0-2.2-.5c-.7 0-1.3.2-1.8.5-.4.3-.7.7-.7 1.3l.3.9.6.6 1 .5 1 .4.4.3.2.4-.3.6-1 .2a6.3 6.3 0 0 1-2.1-.5V.8c.2.2.5.3.9.3l1.1.1c.6 0 1.1 0 1.5-.2.4-.1.7-.4.9-.7.2-.3.3-.6.3-1s0-.7-.2-1z"/><path id="_R_G_L_33_G_D_1_P_0" d="M5.8-.5c-.3-.3-.4-.9-.4-1.6 0-.7.1-1.3.4-1.7.3-.4.6-.6 1.1-.6.7 0 1 .2 1.3.6.3.4.4 1 .4 1.7v.2c0 .7-.2 1.2-.4 1.5C8 0 7.5.1 7 .1 6.4.1 6 0 5.8-.5zm1.6 1.6A2.2 2.2 0 0 0 8.5.2l.3 1h1V-8H8.6v3l.1.5a2 2 0 0 0-1-.9h-1c-.8 0-1.4.2-1.9.8-.5.5-.7 1.4-.7 2.5 0 1 .2 2 .7 2.5.5.6 1 .8 1.9.8l.8-.1z"/><path id="_R_G_L_33_G_D_2_P_0" d="M1-1.4C1-1 1-.4.7-.2.3 0 0 .2-.6.2c-.3 0-.5 0-.7-.2-.2-.2-.3-.4-.3-.7 0-.4.1-.7.4-.9.3-.2.8-.3 1.4-.3h.9v.5zm-2.3-4-1 .5.4 1 .9-.4a3 3 0 0 1 .9-.1c.4 0 .7 0 .9.3.2.1.3.5.3 1v.3H0c-1 0-1.8.2-2.3.5-.5.4-.7.9-.7 1.6 0 .4 0 .8.2 1 .2.4.4.6.8.7.3.2.6.2 1 .2h1L.5.7l.6-.6.3 1h1v-4.4c0-.8-.3-1.4-.7-1.7-.4-.4-1-.6-1.8-.6-.5 0-.9 0-1.3.2z"/><path id="_R_G_L_33_G_D_3_P_0" d="m-6.1-4.2.5.6.1.8h-3c.1-.5.3-1 .5-1.2.3-.3.7-.5 1-.5.4 0 .7.1.9.3zm-2.4-.9c-.4.3-.8.7-1 1.2-.3.5-.4 1-.4 1.8s.2 1.4.4 1.9c.3.5.7.8 1.2 1 .5.3 1 .4 1.6.4h1.3l1-.4V-.3l-1 .3-1.2.1c-.6 0-1-.1-1.4-.5a2 2 0 0 1-.5-1.4H-4v-.7c0-.7-.1-1.2-.4-1.6-.2-.5-.5-.8-1-1a3 3 0 0 0-1.4-.4 3 3 0 0 0-1.6.4z"/><path id="_R_G_L_33_G_D_4_P_0" d="M-10.8 1.1V0h-3.7v-7.3h-1.4V1h5z"/></g><g id="_R_G_L_32_G" transform="translate(87.5 445)" fill="#575958" fill-opacity="1" fill-rule="nonzero"><path id="_R_G_L_32_G_D_0_P_0" d="M43.5-4.3c-.3 0-.5.1-.6.3-.2 0-.3.2-.5.4l-.2-.7h-.9v5.4h1.2v-2.7c0-.6 0-1 .3-1.4.2-.3.5-.5 1-.5.4 0 .7.1.9.4l.2.9V1h1.2v-3.5c0-.7-.2-1.2-.5-1.5a2 2 0 0 0-1.5-.5h-.6z"/><path id="_R_G_L_32_G_D_1_P_0" d="M36.4-3c.2-.3.6-.5 1-.5s.6.1.8.3c.2.1.4.3.5.6l.1 1-.1 1c-.1.3-.3.5-.5.6-.2.2-.4.3-.7.3-.4 0-.6-.1-.8-.3-.2-.1-.4-.3-.5-.6a3 3 0 0 1-.1-1c0-.6 0-1 .3-1.4zm3.3-.1c-.2-.4-.5-.8-1-1-.3-.2-.7-.3-1.2-.3-.6 0-1 .1-1.4.3-.4.2-.7.5-.9 1-.2.4-.3.9-.3 1.5 0 .4 0 .8.2 1.2l.5.9.8.5 1 .2c.4 0 .8 0 1.1-.2a2.2 2.2 0 0 0 1.3-1.4c.2-.4.2-.8.2-1.2 0-.6-.1-1.1-.3-1.5z"/><path id="_R_G_L_32_G_D_2_P_0" d="m33.8-1.2-.5-.5-.9-.4-.8-.3-.3-.3L31-3c0-.2.1-.3.3-.4l.6-.1h.8l.7.4.4-1-.9-.2-1-.1c-.5 0-1 .1-1.4.4-.4.2-.6.6-.6 1s0 .6.2.8l.5.5.9.4.8.4c.2 0 .3.2.4.3v.3c0 .2 0 .3-.2.4-.2.2-.4.2-.8.2l-1-.1-.8-.3v1a3.8 3.8 0 0 0 1.8.3c.4 0 .8 0 1.2-.2l.7-.5c.2-.3.3-.6.3-1 0-.3 0-.5-.2-.7z"/><path id="_R_G_L_32_G_D_3_P_0" d="m28-4.3-.5.4-.4.5-.2-.9H26v5.4h1.2v-2.8l.1-.7a1.4 1.4 0 0 1 .8-.8l.6-.1h.5l.2-1H29a3 3 0 0 0-.3-.1l-.7.1z"/><path id="_R_G_L_32_G_D_4_P_0" d="M23-3.4c.3.1.4.3.5.5l.1.7h-2.4c0-.4.1-.8.4-1 .2-.2.5-.3.8-.3l.7.1zM21.2-4c-.3.2-.6.6-.8 1-.2.4-.3 1-.3 1.5 0 .6 0 1.2.3 1.6.2.4.5.7 1 .9.3.2.8.3 1.3.3h1l.9-.4V0a4.5 4.5 0 0 1-1.8.4c-.5 0-.9-.1-1.1-.4-.3-.3-.5-.7-.5-1.2h3.6V-2c0-.5 0-.9-.2-1.3a2 2 0 0 0-.8-.8c-.4-.2-.8-.3-1.3-.3s-.9.1-1.3.3z"/><path id="_R_G_L_32_G_D_5_P_0" d="M17.5-3c.2.3.3.8.3 1.4 0 .4 0 .7-.2 1 0 .3-.2.5-.4.6a1 1 0 0 1-.7.3c-.3 0-.6-.1-.8-.3l-.4-.6-.1-1v-.2l.1-1 .4-.5.8-.2c.4 0 .8.2 1 .5zM16-4.3c-.2 0-.4.2-.5.3a2 2 0 0 0-.4.4l-.2-.7h-1v7.8h1.2V.4l.4.4.5.3.7.1a2 2 0 0 0 1.1-.3c.4-.2.6-.6.8-1 .2-.4.3-.9.3-1.5 0-1-.2-1.6-.6-2.1a2 2 0 0 0-1.6-.7 2 2 0 0 0-.7.1z"/><path id="_R_G_L_32_G_D_6_P_0" d="m8.5-3.4.4.5.1.7H6.6c0-.4.1-.8.4-1 .2-.2.5-.3.8-.3l.7.1zm-2-.7c-.3.2-.6.6-.8 1-.2.4-.3 1-.3 1.5 0 .6 0 1.2.3 1.6.2.4.5.7 1 .9.4.2.8.3 1.4.3h1l.8-.4V0A4.3 4.3 0 0 1 8 .3C7.6.3 7.2.2 7-.1c-.3-.3-.4-.7-.5-1.2h3.7V-2c0-.5-.1-.9-.3-1.3A2 2 0 0 0 9-4c-.4-.2-.8-.3-1.3-.3s-.9.1-1.3.3z"/><path id="_R_G_L_32_G_D_7_P_0" d="M4-6.5H3v7.6H4v-7.6z"/><path id="_R_G_L_32_G_D_8_P_0" d="M0-3c.3.3.4.8.4 1.4C.4-1 .3-.6.1-.2a1 1 0 0 1-1 .5c-.5 0-.8-.2-1-.5-.2-.3-.3-.8-.3-1.4v-.1c0-.4 0-.7.2-1 0-.3.2-.4.4-.6l.7-.2c.5 0 .8.2 1 .5zm-3.3-3.5v7.6h.8l.2-.7h.1l.6.6 1 .2A2 2 0 0 0 .6.9c.3-.2.5-.6.7-1 .2-.4.3-.9.3-1.5 0-1-.2-1.6-.6-2.1a2 2 0 0 0-1.6-.7c-.4 0-.7 0-1 .2l-.6.6V-6.5h-1.1z"/><path id="_R_G_L_32_G_D_9_P_0" d="M-6-6.2c-.1 0-.2.2-.2.5 0 .2 0 .3.2.4l.5.2c.1 0 .3 0 .4-.2.1 0 .2-.2.2-.5 0-.2 0-.3-.2-.4a.7.7 0 0 0-.4-.2c-.2 0-.4 0-.5.2zM-6-4.3v5.4H-5v-5.4H-6z"/><path id="_R_G_L_32_G_D_10_P_0" d="M-7.5-1.2c-.2-.2-.3-.4-.6-.5l-.8-.4-.8-.3-.4-.3V-3l.1-.4.7-.1h.8l.7.4.4-1-.9-.2-1-.1c-.6 0-1 .1-1.4.4-.4.2-.6.6-.6 1s0 .6.2.8c0 .2.3.4.5.5l.9.4.8.4.3.3.1.3c0 .2 0 .3-.2.4-.2.2-.5.2-.8.2l-1-.1-.8-.3v1a3.9 3.9 0 0 0 1.7.3c.5 0 1 0 1.2-.2.4-.1.6-.3.8-.5.2-.3.3-.6.3-1l-.2-.7z"/><path id="_R_G_L_32_G_D_11_P_0" d="m-15.2-4.3-.6.3-.4.4-.2-.7h-1v5.4h1.2v-2.7c0-.6.1-1 .3-1.4.2-.3.6-.5 1.1-.5.4 0 .6.1.8.4.2.2.3.5.3.9V1h1.1v-3.5c0-.7-.2-1.2-.5-1.5a2 2 0 0 0-1.4-.5h-.7z"/><path id="_R_G_L_32_G_D_12_P_0" d="M-22.3-3c.3-.3.6-.5 1-.5s.7.1.9.3c.2.1.3.3.4.6l.2 1c0 .4 0 .7-.2 1 0 .3-.2.5-.4.6-.2.2-.5.3-.8.3-.3 0-.6-.1-.8-.3-.2-.1-.3-.3-.4-.6l-.2-1c0-.6.1-1 .4-1.4zM-19-3c-.2-.4-.5-.8-.9-1-.4-.2-.8-.3-1.3-.3s-1 .1-1.4.3c-.3.2-.6.5-.8 1-.3.4-.4.9-.4 1.5l.2 1.2.6.9c.2.2.4.4.8.5l1 .2c.4 0 .7 0 1-.2.4-.1.6-.3.9-.5l.5-1 .2-1.1c0-.6-.2-1.1-.4-1.5z"/><path id="_R_G_L_32_G_D_13_P_0" d="M-26.3-3c.3.3.4.8.4 1.4 0 .4 0 .7-.2 1 0 .3-.2.5-.4.6a1 1 0 0 1-.7.3c-.3 0-.6-.1-.8-.3-.2-.1-.3-.3-.4-.6l-.1-1v-.2l.1-1 .4-.5.8-.2c.4 0 .8.2 1 .5zm-1.3-1.3c-.2 0-.4.2-.5.3a2 2 0 0 0-.4.4l-.2-.7h-1v7.8h1.2V.4c0 .2.2.3.4.4l.5.3.7.1a2 2 0 0 0 1.1-.3c.3-.2.6-.6.8-1l.2-1.5c0-1-.1-1.6-.5-2.1a2 2 0 0 0-1.6-.7 2 2 0 0 0-.7.1z"/><path id="_R_G_L_32_G_D_14_P_0" d="m-31-1.2-.6-.5-.9-.4-.7-.3-.4-.3-.1-.3c0-.2 0-.3.2-.4l.7-.1h.7l.8.4.3-1-.9-.2-.9-.1c-.6 0-1.1.1-1.5.4-.4.2-.6.6-.6 1s0 .6.2.8c.1.2.3.4.6.5l.8.4.8.4c.2 0 .3.2.4.3v.3c0 .2 0 .3-.2.4-.1.2-.4.2-.8.2l-.9-.1-.9-.3v1a3.9 3.9 0 0 0 1.8.3c.5 0 .9 0 1.2-.2.3-.1.6-.3.7-.5.2-.3.3-.6.3-1 0-.3 0-.5-.2-.7z"/><path id="_R_G_L_32_G_D_15_P_0" d="m-37.5-3.4.4.5.1.7h-2.4c0-.4.2-.8.4-1 .2-.2.5-.3.9-.3l.6.1zm-2-.7c-.3.2-.6.6-.8 1-.2.4-.3 1-.3 1.5 0 .6.1 1.2.3 1.6.3.4.6.7 1 .9.4.2.8.3 1.4.3h1l.8-.4V0a4.5 4.5 0 0 1-1.8.4c-.5 0-.8-.1-1.1-.4-.3-.3-.4-.7-.4-1.2h3.6V-2c0-.5-.1-.9-.3-1.3a2 2 0 0 0-.8-.8c-.3-.2-.8-.3-1.2-.3-.5 0-1 .1-1.3.3z"/><path id="_R_G_L_32_G_D_16_P_0" d="M-43.4-4.8c.2.2.4.5.4.9s-.1.7-.4.9c-.2.2-.6.3-1.2.3h-.8v-2.4h.8c.5 0 1 .1 1.2.3zM-46.6-6V1h1.2v-2.9h1.2l1.7 2.9h1.3l-2-3.2.7-.4.5-.6.2-.9c0-.4-.1-.8-.3-1.1-.2-.3-.5-.6-1-.7-.3-.2-.8-.2-1.5-.2h-2z"/></g><g id="_R_G_L_31_G" transform="translate(102 421.5)" fill="#575958" fill-opacity="1" fill-rule="nonzero"><path id="_R_G_L_31_G_D_0_P_0" d="M72.5-5.1c.2.1.4.4.5.7l.2 1h-3.5c.1-.7.3-1.1.6-1.5.3-.3.7-.5 1.2-.5.4 0 .7.1 1 .3zm-2.8-1c-.5.3-1 .8-1.2 1.3-.3.6-.4 1.4-.4 2.2 0 .9.1 1.6.4 2.1.3.6.8 1 1.4 1.3.5.3 1.2.5 2 .5a6.4 6.4 0 0 0 2.5-.5V-.5l-1.2.4-1.3.1c-.7 0-1.2-.2-1.6-.6-.4-.4-.6-1-.6-1.7h5V-3a4 4 0 0 0-.3-1.9c-.3-.5-.7-.9-1.1-1.2-.5-.2-1.1-.4-1.8-.4s-1.3.2-1.8.5z"/><path id="_R_G_L_31_G_D_1_P_0" d="m65.8 1.2 1-.4V-.6a3.8 3.8 0 0 1-2 .5c-.5 0-.9 0-1.2-.2-.3-.3-.5-.5-.6-1a4 4 0 0 1-.2-1.3c0-.6 0-1 .2-1.5.1-.4.3-.6.6-.8a2 2 0 0 1 1.1-.3h.9l.8.4.5-1.3c-.2-.1-.6-.3-1-.3l-1.2-.2c-.7 0-1.3.2-1.8.4a3 3 0 0 0-1.3 1.3c-.3.6-.5 1.4-.5 2.3 0 .9.1 1.6.4 2.2.3.6.7 1 1.2 1.3a4 4 0 0 0 1.9.4l1.2-.1z"/><path id="_R_G_L_31_G_D_2_P_0" d="M55.7-6.4a2.5 2.5 0 0 0-1.5 1l-.3-1h-1.2V1h1.6v-3.7c0-.9.1-1.5.4-2 .3-.4.8-.7 1.5-.7.5 0 .9.2 1.1.5.3.3.4.7.4 1.3v4.6h1.6v-4.9c0-1-.2-1.7-.7-2.1a3.3 3.3 0 0 0-3-.5z"/><path id="_R_G_L_31_G_D_3_P_0" d="M48.8-1.8c0 .6-.2 1-.5 1.4a2 2 0 0 1-1.4.5c-.4 0-.7-.1-.9-.3-.2-.2-.3-.5-.3-.8 0-.4.1-.8.4-1 .4-.3 1-.4 1.7-.4h1v.6zM46-6.4l-1.2.5.5 1.1 1-.4a4 4 0 0 1 1.1-.1c.5 0 .8 0 1 .3.3.2.4.6.4 1.1v.4h-1.3a5 5 0 0 0-2.6.7c-.6.4-.9 1-.9 1.8 0 .5.1 1 .3 1.3.2.3.5.6.9.7.3.2.7.3 1.2.3.4 0 .8 0 1-.2.4 0 .6-.2.8-.4.3-.1.5-.4.7-.6l.4 1h1.1v-5c0-1-.2-1.6-.7-2-.5-.5-1.2-.7-2.2-.7-.5 0-1 0-1.5.2z"/><path id="_R_G_L_31_G_D_4_P_0" d="M38.4-6.3c-.4.2-.8.5-1 1h-.1c-.2-.5-.5-.8-.9-1a3 3 0 0 0-1.4-.3 3 3 0 0 0-1.7.5l-.5.7h-.1l-.3-1h-1.2V1h1.6v-3.7c0-.6 0-1 .2-1.5 0-.4.3-.7.5-.9.3-.2.6-.3 1-.3l.8.2.5.6.1 1V1h1.6v-4c0-.8.2-1.3.5-1.8.2-.4.7-.6 1.3-.6.5 0 .8.2 1 .5.3.3.4.7.4 1.3V1h1.6v-5c0-.9-.2-1.6-.6-2a3.2 3.2 0 0 0-3.3-.4z"/><path id="_R_G_L_31_G_D_5_P_0" d="M24.3-4.6c.3-.4.8-.7 1.5-.7.4 0 .8.1 1 .3.3.3.6.5.7 1l.2 1.3c0 .6 0 1-.2 1.5l-.6.8c-.3.3-.7.4-1.1.4-.5 0-.8-.1-1.1-.3-.3-.3-.5-.6-.6-1-.2-.3-.3-.8-.3-1.4 0-.8.2-1.4.5-1.9zm4.6-.2c-.3-.6-.7-1-1.3-1.3-.5-.3-1.1-.5-1.8-.5-.8 0-1.4.2-2 .5a3 3 0 0 0-1.2 1.3c-.3.6-.4 1.3-.4 2.1 0 .7 0 1.2.3 1.7.1.5.4 1 .7 1.3l1.1.7c.4.2 1 .3 1.4.3.6 0 1-.1 1.5-.3a3 3 0 0 0 1.9-2l.2-1.7c0-.8-.1-1.5-.4-2z"/><path id="_R_G_L_31_G_D_6_P_0" d="M21.4-6.4h-1.9V-7c0-.5.1-.8.3-1 .1-.3.4-.4.8-.4h.6l.5.2.4-1.2a5 5 0 0 0-1.7-.3c-.5 0-1 .1-1.3.3-.4.1-.7.4-.9.8-.2.4-.3.9-.3 1.5v.5l-1.2.5v.8h1.2v6.3h1.6v-6.3h1.9v-1.2z"/><path id="_R_G_L_31_G_D_7_P_0" d="m14.4-6.4-.8.6-.5.7H13l-.2-1.3h-1.3V1h1.6v-4l.2-.9.5-.7.7-.4.8-.2a2.6 2.6 0 0 1 .7.1l.2-1.5h-.8l-1 .1z"/><path id="_R_G_L_31_G_D_8_P_0" d="M7.4-5.1c.3.1.4.4.6.7l.1 1H4.7c0-.7.2-1.1.5-1.5.4-.3.8-.5 1.3-.5.3 0 .7.1 1 .3zm-2.7-1a3 3 0 0 0-1.3 1.3c-.2.6-.4 1.4-.4 2.2 0 .9.2 1.6.5 2.1.3.6.8 1 1.3 1.3.6.3 1.2.5 2 .5.5 0 1 0 1.4-.2.4 0 .8-.2 1.1-.3V-.5l-1.2.4-1.3.1a2 2 0 0 1-1.5-.6c-.4-.4-.6-1-.6-1.7h5V-3A4 4 0 0 0 9.3-5c-.2-.5-.6-.9-1-1.2-.6-.2-1.2-.4-1.8-.4-.7 0-1.3.2-1.8.5z"/><path id="_R_G_L_31_G_D_9_P_0" d="M-.5-4.6c.3.5.5 1.1.5 2l-.2 1.3a2 2 0 0 1-.6 1c-.3.1-.6.3-1 .3s-.8-.1-1-.3c-.4-.3-.6-.6-.7-1l-.1-1.4v-.2l.1-1.3.6-.8a2 2 0 0 1 1.1-.3c.6 0 1 .3 1.3.7zm-1.9-1.8L-3-6a3 3 0 0 0-.5.6h-.1l-.2-1h-1.4V4.5h1.7v-3A6.7 6.7 0 0 0-3.7.1l.6.5.7.4 1 .2A3 3 0 0 0 1.2-.5c.3-.6.4-1.3.4-2.2 0-1.3-.3-2.2-.8-2.9-.6-.6-1.3-1-2.2-1-.4 0-.7 0-1 .2z"/><path id="_R_G_L_31_G_D_10_P_0" d="M-13-5.1c.2.1.4.4.5.7.2.3.2.6.2 1h-3.4c0-.7.2-1.1.5-1.5.3-.3.8-.5 1.3-.5.3 0 .7.1.9.3zm-2.8-1A3 3 0 0 0-17-4.8c-.3.6-.4 1.4-.4 2.2 0 .9.2 1.6.5 2.1.3.6.7 1 1.3 1.3.6.3 1.2.5 2 .5.5 0 1 0 1.4-.2l1.1-.3V-.5l-1.2.4-1.3.1a2 2 0 0 1-1.6-.6c-.3-.4-.5-1-.6-1.7h5.1V-3a4 4 0 0 0-.4-1.9c-.3-.5-.6-.9-1.1-1.2-.5-.2-1-.4-1.7-.4s-1.3.2-1.9.5z"/><path id="_R_G_L_31_G_D_11_P_0" d="M-21-5.1c.2.1.4.4.5.7l.2 1h-3.5c0-.7.3-1.1.6-1.5.3-.3.7-.5 1.2-.5.4 0 .7.1 1 .3zm-2.8-1c-.6.3-1 .8-1.2 1.3a5 5 0 0 0-.5 2.2c0 .9.2 1.6.5 2.1.3.6.8 1 1.3 1.3.6.3 1.2.5 2 .5a6.4 6.4 0 0 0 2.6-.5V-.5a5.8 5.8 0 0 1-2.5.6c-.7 0-1.3-.3-1.6-.7-.4-.4-.6-1-.6-1.7h5V-3a4 4 0 0 0-.4-1.9c-.2-.5-.6-.9-1-1.2-.6-.2-1.1-.4-1.8-.4s-1.3.2-1.8.5z"/><path id="_R_G_L_31_G_D_12_P_0" d="m-30.6 1.1-.3.7-.4.7-.5.5-.7.2a3.2 3.2 0 0 1-.9-.1v1.3h.5l.6.1c.4 0 .9 0 1.2-.3.4-.2.7-.4 1-.8.3-.3.5-.7.7-1.2l3.2-8.6h-1.7l-1.5 4.3a15.4 15.4 0 0 0-.5 1.7L-30-1l-.2-.5c0-.2 0-.4-.2-.6l-1.5-4.3h-1.8l3 7.5z"/><path id="_R_G_L_31_G_D_13_P_0" d="M-39.4-4.6c.3-.4.8-.7 1.5-.7.4 0 .8.1 1 .3.4.3.5.5.7 1l.2 1.3c0 .6 0 1-.2 1.5-.1.3-.3.6-.6.8-.3.3-.7.4-1.1.4-.5 0-.8-.1-1.1-.3-.3-.3-.5-.6-.6-1-.2-.3-.3-.8-.3-1.4 0-.8.2-1.4.5-1.9zm4.6-.2c-.3-.6-.7-1-1.3-1.3a3.8 3.8 0 0 0-3.8 0A3 3 0 0 0-41-4.8c-.3.6-.4 1.3-.4 2.1 0 .7 0 1.2.3 1.7.1.5.4 1 .7 1.3l1.1.7a4 4 0 0 0 3 0 3 3 0 0 0 1.8-2c.2-.5.2-1 .2-1.7 0-.8-.1-1.5-.4-2z"/><path id="_R_G_L_31_G_D_14_P_0" d="M-43.4-9.5H-45V1.1h1.6V-9.5z"/><path id="_R_G_L_31_G_D_15_P_0" d="M-48.9-4.6c.3.5.4 1.1.4 2 0 .5 0 1-.2 1.3a2 2 0 0 1-.5 1c-.3.1-.6.3-1 .3-.5 0-.8-.1-1.1-.3-.3-.3-.5-.6-.6-1l-.2-1.4v-.2l.2-1.3c.1-.4.3-.6.6-.8.3-.2.6-.3 1-.3.7 0 1.1.3 1.4.7zm-2-1.8c-.2.1-.5.2-.6.4l-.6.6-.3-1h-1.3V4.5h1.6v-3a6.7 6.7 0 0 0 0-1.3l.5.5.8.4 1 .2c.6 0 1-.2 1.5-.5s.8-.7 1.1-1.3c.3-.6.4-1.3.4-2.2 0-1.3-.3-2.2-.8-2.9-.6-.6-1.3-1-2.2-1-.4 0-.7 0-1 .2z"/><path id="_R_G_L_31_G_D_16_P_0" d="M-59.8-6.3c-.5.2-.8.5-1 1h-.2c-.1-.5-.4-.8-.8-1-.4-.2-.9-.3-1.4-.3a3 3 0 0 0-1 .2 2.4 2.4 0 0 0-1.3 1l-.3-1H-67V1h1.6v-3.7l.1-1.5c.1-.4.3-.7.6-.9.3-.2.6-.3 1-.3l.8.2.5.6.1 1V1h1.6v-4c0-.8.2-1.3.4-1.8.3-.4.8-.6 1.4-.6.5 0 .8.2 1 .5.3.3.4.7.4 1.3V1h1.6v-5c0-.9-.2-1.6-.7-2-.4-.4-1-.7-1.9-.7-.5 0-1 .1-1.3.3z"/><path id="_R_G_L_31_G_D_17_P_0" d="M-69-.3h-4v-3h3.7v-1.5H-73v-2.7h4v-1.3h-5.6v10h5.7V-.3z"/></g><g id="_R_G_L_30_G" transform="translate(308 445)" fill="#575958" fill-opacity="1" fill-rule="nonzero"><path id="_R_G_L_30_G_D_0_P_0" d="m12.3-3.4.4.5.1.7h-2.4c0-.4.1-.8.4-1 .2-.2.5-.3.8-.3l.7.1zm-2-.7c-.3.2-.6.6-.8 1-.2.4-.3 1-.3 1.5 0 .6 0 1.2.3 1.6.2.4.6.7 1 .9.3.2.8.3 1.3.3h1l.9-.4V0l-.9.3H12c-.5 0-.9 0-1.1-.3-.3-.3-.4-.7-.5-1.2H14V-2c0-.5 0-.9-.2-1.3a2 2 0 0 0-.8-.8c-.4-.2-.8-.3-1.3-.3s-.9.1-1.3.3z"/><path id="_R_G_L_30_G_D_1_P_0" d="m6.6 1.1 2-5.4H7.6L6.3-1.1A7.2 7.2 0 0 0 6 0 71.8 71.8 0 0 0 5.7-1L4.5-4.3H3.3l2 5.4h1.3z"/><path id="_R_G_L_30_G_D_2_P_0" d="M1.5-6.2c-.1 0-.2.2-.2.5 0 .2 0 .3.2.4l.4.2c.2 0 .4 0 .5-.2.1 0 .2-.2.2-.5 0-.2 0-.3-.2-.4a.7.7 0 0 0-.5-.2c-.1 0-.3 0-.4.2zm-.1 1.9v5.4h1.1v-5.4H1.4z"/><path id="_R_G_L_30_G_D_3_P_0" d="M-1.1 0c-.2 0-.2-.3-.2-.5v-3H.2v-.8h-1.5v-1.2h-.8l-.3 1.2-.8.4v.5h.7v2.9c0 .4 0 .8.2 1 .2.3.4.4.6.5l.8.2A3.2 3.2 0 0 0 .3 1V.1a3.3 3.3 0 0 1-.9.2L-1 0z"/><path id="_R_G_L_30_G_D_4_P_0" d="m-4.5 1.1.6-.3v-1l-.6.3-.8.1c-.3 0-.6 0-.8-.2l-.5-.6a3 3 0 0 1-.1-1c0-.4 0-.7.2-1 0-.3.2-.5.4-.6.2-.2.5-.3.8-.3l.6.1.6.2.4-.9-.7-.2a3.4 3.4 0 0 0-2.2.2c-.4.2-.7.5-1 1-.2.3-.3.9-.3 1.5 0 .7.1 1.2.3 1.6.2.4.5.7.9.9.4.2.8.3 1.3.3h.9z"/><path id="_R_G_L_30_G_D_5_P_0" d="m-12.7-1.9.6-2 .1-.3.2-.4.1-.5.1.4.2.5v.4l.8 2h-2.1zm4.3 3L-11-6.1h-1.3L-15 1.1h1.2l.7-2h2.8l.7 2h1.2z"/></g><g id="_R_G_L_29_G" transform="translate(299 473)" fill="#575958" fill-opacity="1" fill-rule="nonzero"><path id="_R_G_L_29_G_D_0_P_0" d="M2-3.3h-.4L1.7-5h2.7v-1H.7L.5-2.5l.4.3a4 4 0 0 1 1.2-.2c.6 0 1 .1 1.3.3.2.3.3.6.3 1 0 .3 0 .5-.2.7 0 .2-.3.4-.5.5l-.9.1A4.4 4.4 0 0 1 .3-.2v1l.8.3 1 .1c.7 0 1.2-.1 1.6-.3.4-.2.7-.5.9-.8.2-.4.3-.8.3-1.3s0-.9-.3-1.2a2 2 0 0 0-.8-.7 3 3 0 0 0-1.2-.3 5 5 0 0 0-.6 0z"/><path id="_R_G_L_29_G_D_1_P_0" d="M-1.6-5.7C-2-6-2.6-6-3.3-6a3.7 3.7 0 0 0-2.3.7l.6.8.5-.3.5-.2h.7c.4 0 .7 0 .9.2.1.1.3.4.3.7l-.2.6c-.1.2-.3.3-.6.4l-1 .2h-.6v.9h.6l1.1.1c.3 0 .5.2.6.4l.2.6c0 .4-.1.7-.4 1-.2.1-.6.3-1.3.3-.3 0-.6 0-1-.2l-.9-.3v1a4.7 4.7 0 0 0 2 .4c.7 0 1.2 0 1.6-.3a2 2 0 0 0 1-.7L-.9-1c0-.5-.1-.9-.4-1.2-.3-.3-.7-.4-1.3-.5l.8-.4A1.7 1.7 0 0 0-1-4.4c0-.5-.2-1-.6-1.3z"/></g><g id="_R_G_L_28_G" transform="translate(420 473)" fill="#575958" fill-opacity="1" fill-rule="nonzero"><path id="_R_G_L_28_G_D_0_P_0" d="M4.1-5.7C3.7-6 3.1-6 2.4-6a3.7 3.7 0 0 0-2.2.7l.5.8.5-.3.5-.2h.7c.4 0 .7 0 .9.2.2.1.3.4.3.7 0 .2 0 .4-.2.6l-.5.4-1 .2h-.7v.9H2l1 .1c.3 0 .5.2.6.4.2.1.2.3.2.6 0 .4-.1.7-.4 1-.2.1-.6.3-1.2.3-.3 0-.7 0-1-.2l-1-.3v1a5 5 0 0 0 3.6.1 2 2 0 0 0 1-.7L4.8-1c0-.5-.1-.9-.4-1.2-.3-.3-.7-.4-1.3-.5L4-3c.2-.1.4-.3.5-.6.2-.2.2-.5.2-.8 0-.5-.2-1-.6-1.3z"/><path id="_R_G_L_28_G_D_1_P_0" d="M-1.6-5.7C-2-6-2.6-6-3.3-6a3.7 3.7 0 0 0-2.3.7l.6.8.5-.3.5-.2h.7c.4 0 .7 0 .9.2.1.1.3.4.3.7l-.2.6c-.1.2-.3.3-.6.4l-1 .2h-.6v.9h.6l1.1.1c.3 0 .5.2.6.4l.2.6c0 .4-.1.7-.4 1-.2.1-.6.3-1.3.3-.3 0-.6 0-1-.2l-.9-.3v1a4.7 4.7 0 0 0 2 .4c.7 0 1.2 0 1.6-.3a2 2 0 0 0 1-.7L-.9-1c0-.5-.1-.9-.4-1.2-.3-.3-.7-.4-1.3-.5l.8-.4A1.7 1.7 0 0 0-1-4.4c0-.5-.2-1-.6-1.3z"/></g><g id="_R_G_L_27_G" transform="translate(577 473)"><path id="_R_G_L_27_G_D_0_P_0" fill="#575958" fill-opacity="1" fill-rule="nonzero" d="M1.4-5.7C1-6 .4-6-.3-6a3.8 3.8 0 0 0-2.3.7l.6.8.5-.3.5-.2h.7c.4 0 .7 0 .9.2.2.1.3.4.3.7l-.2.6c-.1.2-.3.3-.6.4l-1 .2h-.6v.9h.6L.2-2c.3 0 .5.2.6.4L1-1C1-.6 1-.3.6 0 .4 0 0 .2-.7.2c-.3 0-.6 0-1-.2l-.9-.3v1a4.7 4.7 0 0 0 2 .4c.7 0 1.2 0 1.6-.3a2 2 0 0 0 1-.7L2.1-1c0-.5-.1-.9-.4-1.2-.3-.3-.7-.4-1.3-.5l.8-.4A1.7 1.7 0 0 0 2-4.4c0-.5-.2-1-.6-1.3z"/></g><g id="_R_G_L_26_G" transform="translate(697.5 473)" class="71" fill="#575958" fill-opacity="1" fill-rule="nonzero"><path id="_R_G_L_26_G_D_0_P_0" d="m12.5-2.1.2 1c0 .5 0 .9-.2 1.1 0 .3-.3.4-.5.4s-.3-.1-.4-.4a3 3 0 0 1-.2-1c0-.5 0-.9.2-1.1 0-.3.2-.4.4-.4.3 0 .4.1.5.4zm-1.7-.6a3 3 0 0 0-.3 1.7c0 .7 0 1.2.4 1.6.2.4.6.6 1.1.6.6 0 1-.2 1.2-.6.3-.4.4-1 .4-1.6 0-.8-.1-1.3-.4-1.7-.3-.4-.6-.6-1.2-.6-.5 0-1 .2-1.2.6zm.4-3.3L7.2 1h1l4-7.1h-1zM8-5 8-3.9c0 .5 0 .8-.2 1 0 .3-.2.4-.4.4s-.4 0-.5-.3L6.8-4l.1-1c.1-.3.3-.4.5-.4s.3 0 .4.3zm-1.7-.6a3 3 0 0 0-.4 1.7c0 .7.1 1.3.4 1.6.3.4.6.6 1.2.6.5 0 1-.2 1.2-.6.2-.4.4-.9.4-1.6 0-.7-.2-1.3-.4-1.7C8.3-6 7.9-6 7.4-6c-.6 0-1 .1-1.2.5z"/><path id="_R_G_L_26_G_D_1_P_0" d="M3.5-6h-1l-2 1.6.5.8.8-.7.3-.3.3-.2V1h1.1V-6z"/><path id="_R_G_L_26_G_D_2_P_0" d="m-3.5 1.1 2.8-6.3V-6h-5v1H-2L-4.8 1h1.3z"/><path id="_R_G_L_26_G_D_3_P_0" d="M-8 1c.2.2.4.2.6.2l.5-.1.2-.6c0-.3 0-.5-.2-.6a.8.8 0 0 0-.5-.1l-.5.1c-.2.1-.2.3-.2.6s0 .4.2.6z"/><path id="_R_G_L_26_G_D_4_P_0" d="M-12.2-3.3h-.5l.2-1.7h2.7v-1h-3.7l-.3 3.5.5.3a4.4 4.4 0 0 1 1.2-.2c.6 0 1 .1 1.2.3.3.3.4.6.4 1 0 .3 0 .5-.2.7l-.5.5-.9.1a4.3 4.3 0 0 1-1.8-.4v1l.8.3 1 .1c.6 0 1.1-.1 1.5-.3.5-.2.8-.5 1-.8.2-.4.3-.8.3-1.3s-.1-.9-.3-1.2a2 2 0 0 0-.8-.7l-1.2-.3h-.6z"/></g><g id="_R_G_L_25_G" transform="translate(807.5 473)" class="29" fill="#575958" fill-opacity="1" fill-rule="nonzero"><path id="_R_G_L_25_G_D_0_P_0" d="m15.2-2.1.2 1c0 .5 0 .9-.2 1.1 0 .3-.2.4-.4.4-.3 0-.4-.1-.5-.4a3 3 0 0 1-.2-1c0-.5 0-.9.2-1.1 0-.3.2-.4.4-.4.3 0 .4.1.5.4zm-1.6-.6a3 3 0 0 0-.4 1.7c0 .7.1 1.2.4 1.6.3.4.6.6 1.2.6.5 0 .9-.2 1.2-.6.2-.4.4-1 .4-1.6 0-.8-.2-1.3-.5-1.7-.2-.4-.6-.6-1.2-.6-.5 0-.9.2-1.1.6zm.3-3.3L10 1h1L15-6h-1zm-3.3 1 .1 1.1-.1 1c-.1.3-.3.4-.5.4s-.4 0-.5-.3A3 3 0 0 1 9.5-4l.1-1c.1-.3.3-.4.5-.4s.4 0 .5.3zm-1.7-.6a3 3 0 0 0-.4 1.7c0 .7.2 1.3.4 1.6.3.4.7.6 1.2.6s1-.2 1.2-.6c.3-.4.4-.9.4-1.6 0-.7-.2-1.3-.4-1.7C11-6 10.6-6 10-6c-.6 0-1 .1-1.2.5z"/><path id="_R_G_L_25_G_D_1_P_0" d="m5.8-5 .4.3a2 2 0 0 1 .3 1.2c0 .1 0 .3-.2.5 0 .2-.2.3-.4.4-.3.2-.5.2-.8.2-.4 0-.7-.1-.9-.3C4-3 4-3.3 4-3.7c0-.5.1-.9.4-1.1.2-.3.5-.4.9-.4.2 0 .4 0 .5.2zm1.7.6c-.2-.4-.3-.7-.6-1l-.8-.5c-.3-.2-.6-.2-1-.2s-.8 0-1.2.3a2 2 0 0 0-.8.8c-.2.4-.3.8-.3 1.3s0 .9.3 1.2c.1.3.4.6.7.8l1 .2.8-.1a1.6 1.6 0 0 0 .9-.7c0 .5 0 1-.2 1.3-.1.4-.4.7-.7 1-.3.2-.8.3-1.4.3h-.5L3.3.1v1h1c.5 0 1 0 1.4-.2l1-.7.6-1 .3-1V-3l-.1-1.4z"/><path id="_R_G_L_25_G_D_2_P_0" d="M2 0h-3.4l1.2-1.2 1-1 .7-1 .2-1c0-.4 0-.7-.3-1-.1-.3-.4-.5-.7-.7-.3-.2-.7-.2-1.2-.2h-1l-.7.4a5 5 0 0 0-.6.5l.6.7.8-.5.9-.2c.3 0 .5.1.7.3.2.2.3.4.3.8l-.1.8-.5.7-1 1L-2.8.2v.9H2v-1z"/><path id="_R_G_L_25_G_D_3_P_0" d="M-5.2 1c.1.2.3.2.5.2l.5-.1c.2-.2.2-.4.2-.6 0-.3 0-.5-.2-.6a.8.8 0 0 0-.5-.1l-.5.1-.2.6c0 .3 0 .4.2.6z"/><path id="_R_G_L_25_G_D_4_P_0" d="M-10.5-1.4-8.8-4l.3-.4.2-.4V-1.4h-2.2zm4.3 0h-1v-4.7h-1.1l-3.3 4.8v.8h3.3v1.6h1V-.5h1v-1z"/><path id="_R_G_L_25_G_D_5_P_0" d="m-14.1-5 .4.3a2 2 0 0 1 .3 1.2c0 .1 0 .3-.2.5 0 .2-.2.3-.4.4-.2.2-.5.2-.8.2-.4 0-.7-.1-.9-.3-.2-.3-.3-.6-.3-1 0-.5.2-.9.4-1.1.2-.3.5-.4.9-.4.2 0 .4 0 .6.2zm1.7.6-.5-1-.8-.5c-.4-.2-.7-.2-1-.2-.5 0-1 0-1.3.3-.3.2-.6.4-.8.8-.2.4-.3.8-.3 1.3s.1.9.3 1.2c.1.3.4.6.7.8l1 .2.8-.1a1.6 1.6 0 0 0 1-.7c0 .5-.1 1-.3 1.3-.1.4-.4.7-.7 1-.3.2-.8.3-1.4.3a3.4 3.4 0 0 1-.9-.1v1h1c.5 0 1 0 1.4-.2l1-.7.6-1 .3-1V-3l-.1-1.4z"/></g><g id="_R_G_L_24_G" transform="translate(299 508)" fill="#575958" fill-opacity="1" fill-rule="nonzero"><path id="_R_G_L_24_G_D_0_P_0" d="M3-5c.3 0 .4.2.5.3l.2.6.1.6-.1.5-.5.4c-.2.2-.5.2-.7.2-.5 0-.8-.1-1-.3l-.2-1c0-.5 0-.9.3-1.1.2-.3.5-.4.9-.4.2 0 .4 0 .6.2zm1.8.6-.5-1A2.3 2.3 0 0 0 2.5-6c-.5 0-1 0-1.3.3a2 2 0 0 0-.8.8c-.2.4-.3.8-.3 1.3s.1.9.3 1.2l.7.8 1 .2.8-.1a1.6 1.6 0 0 0 1-.7c0 .5-.1 1-.3 1.3-.1.4-.3.7-.7 1-.3.2-.8.3-1.4.3h-.4L.6.1v1h1c.5 0 1 0 1.4-.2A2.7 2.7 0 0 0 4.6-.6l.3-1.2V-3l-.1-1.4z"/><path id="_R_G_L_24_G_D_1_P_0" d="M-1.6-5.7C-2-6-2.6-6-3.3-6a3.7 3.7 0 0 0-2.3.7l.6.8.5-.3.5-.2h.7c.4 0 .7 0 .9.2.1.1.3.4.3.7l-.2.6c-.1.2-.3.3-.6.4l-1 .2h-.6v.9h.6l1.1.1c.3 0 .5.2.6.4l.2.6c0 .4-.1.7-.4 1-.2.1-.6.3-1.3.3-.3 0-.6 0-1-.2l-.9-.3v1a4.7 4.7 0 0 0 2 .4c.7 0 1.2 0 1.6-.3a2 2 0 0 0 1-.7L-.9-1c0-.5-.1-.9-.4-1.2-.3-.3-.7-.4-1.3-.5l.8-.4A1.7 1.7 0 0 0-1-4.4c0-.5-.2-1-.6-1.3z"/></g><g id="_R_G_L_23_G" transform="translate(420 508)" fill="#575958" fill-opacity="1" fill-rule="nonzero"><path id="_R_G_L_23_G_D_0_P_0" d="M5 0H1.6L3-1.2l1-1c.3-.3.5-.6.6-1 .2-.3.3-.6.3-1s-.1-.7-.3-1c-.2-.3-.4-.5-.8-.7-.3-.2-.7-.2-1.1-.2h-1l-.8.4a5 5 0 0 0-.6.5l.6.7.8-.5.9-.2c.3 0 .6.1.8.3.2.2.3.4.3.8 0 .3 0 .5-.2.8 0 .2-.3.4-.5.7l-.9 1L.2.2v.9H5v-1z"/><path id="_R_G_L_23_G_D_1_P_0" d="M-1.6-5.7C-2-6-2.6-6-3.3-6a3.7 3.7 0 0 0-2.3.7l.6.8.5-.3.5-.2h.7c.4 0 .7 0 .9.2.1.1.3.4.3.7l-.2.6c-.1.2-.3.3-.6.4l-1 .2h-.6v.9h.6l1.1.1c.3 0 .5.2.6.4l.2.6c0 .4-.1.7-.4 1-.2.1-.6.3-1.3.3-.3 0-.6 0-1-.2l-.9-.3v1a4.7 4.7 0 0 0 2 .4c.7 0 1.2 0 1.6-.3a2 2 0 0 0 1-.7L-.9-1c0-.5-.1-.9-.4-1.2-.3-.3-.7-.4-1.3-.5l.8-.4A1.7 1.7 0 0 0-1-4.4c0-.5-.2-1-.6-1.3z"/></g><g id="_R_G_L_22_G" transform="translate(577 508)"><path id="_R_G_L_22_G_D_0_P_0" fill="#575958" fill-opacity="1" fill-rule="nonzero" d="m-.5 1.1 2.8-6.3V-6h-5v1h3.8L-1.7 1h1.2z"/></g><g id="_R_G_L_21_G" transform="translate(700.5 508)" class="95" fill="#575958" fill-opacity="1" fill-rule="nonzero"><path id="_R_G_L_21_G_D_0_P_0" d="m15.2-2.1.2 1c0 .5 0 .9-.2 1.1 0 .3-.2.4-.4.4-.3 0-.4-.1-.5-.4a3 3 0 0 1-.2-1c0-.5 0-.9.2-1.1 0-.3.2-.4.4-.4.3 0 .4.1.5.4zm-1.6-.6a3 3 0 0 0-.4 1.7c0 .7.1 1.2.4 1.6.3.4.6.6 1.2.6.5 0 .9-.2 1.2-.6.2-.4.4-1 .4-1.6 0-.8-.2-1.3-.5-1.7-.2-.4-.6-.6-1.2-.6-.5 0-.9.2-1.1.6zm.3-3.3L10 1h1L15-6h-1zm-3.3 1 .1 1.1-.1 1c-.1.3-.3.4-.5.4s-.4 0-.5-.3A3 3 0 0 1 9.5-4l.1-1c.1-.3.3-.4.5-.4s.4 0 .5.3zm-1.7-.6a3 3 0 0 0-.4 1.7c0 .7.2 1.3.4 1.6.3.4.7.6 1.2.6s1-.2 1.2-.6c.3-.4.4-.9.4-1.6 0-.7-.2-1.3-.4-1.7C11-6 10.6-6 10-6c-.6 0-1 .1-1.2.5z"/><path id="_R_G_L_21_G_D_1_P_0" d="M4.7-3.3h-.5L4.4-5h2.7v-1H3.4L3-2.5l.5.3a4.4 4.4 0 0 1 1.2-.2c.5 0 1 .1 1.2.3.3.3.4.6.4 1 0 .3 0 .5-.2.7l-.5.5-.9.1A4.3 4.3 0 0 1 3-.2v1l.8.3 1 .1c.6 0 1.1-.1 1.5-.3.5-.2.8-.5 1-.8.2-.4.3-.8.3-1.3s-.1-.9-.3-1.2c-.2-.3-.5-.6-.8-.7l-1.2-.3h-.6z"/><path id="_R_G_L_21_G_D_2_P_0" d="M0-5c.2 0 .3.2.5.3l.2.6V-3l-.6.4c-.2.2-.4.2-.7.2-.4 0-.7-.1-.9-.3-.2-.3-.3-.6-.3-1 0-.5.1-.9.4-1.1.2-.3.5-.4.8-.4.3 0 .5 0 .6.2zm1.8.6a3 3 0 0 0-.6-1A2.3 2.3 0 0 0-.6-6c-.4 0-.8 0-1.2.3a2 2 0 0 0-.8.8c-.2.4-.3.8-.3 1.3s0 .9.2 1.2l.8.8 1 .2.8-.1c.2 0 .4-.2.5-.3l.4-.4c0 .5 0 1-.2 1.3-.1.4-.4.7-.7 1-.4.2-.8.3-1.4.3H-2l-.4-.1v1h.9c.6 0 1 0 1.5-.2A2.7 2.7 0 0 0 1.6-.6l.3-1.2V-3l-.1-1.4z"/><path id="_R_G_L_21_G_D_3_P_0" d="M-5.2 1c.1.2.3.2.5.2l.5-.1c.2-.2.2-.4.2-.6 0-.3 0-.5-.2-.6a.8.8 0 0 0-.5-.1l-.5.1-.2.6c0 .3 0 .4.2.6z"/><path id="_R_G_L_21_G_D_4_P_0" d="m-9.3 1.1 2.8-6.3V-6h-5v1h3.8L-10.5 1h1.2z"/><path id="_R_G_L_21_G_D_5_P_0" d="M-13.7-6h-1l-2 1.6.5.8.8-.7.4-.3.2-.2V1h1.1V-6z"/></g><g id="_R_G_L_20_G" transform="translate(807.5 508)" class="5" fill="#575958" fill-opacity="1" fill-rule="nonzero"><path id="_R_G_L_20_G_D_0_P_0" d="m15.2-2.1.2 1c0 .5 0 .9-.2 1.1 0 .3-.2.4-.4.4-.3 0-.4-.1-.5-.4a3 3 0 0 1-.2-1c0-.5 0-.9.2-1.1 0-.3.2-.4.4-.4.3 0 .4.1.5.4zm-1.6-.6a3 3 0 0 0-.4 1.7c0 .7.1 1.2.4 1.6.3.4.6.6 1.2.6.5 0 .9-.2 1.2-.6.2-.4.4-1 .4-1.6 0-.8-.2-1.3-.5-1.7-.2-.4-.6-.6-1.2-.6-.5 0-.9.2-1.1.6zm.3-3.3L10 1h1L15-6h-1zm-3.3 1 .1 1.1-.1 1c-.1.3-.3.4-.5.4s-.4 0-.5-.3A3 3 0 0 1 9.5-4l.1-1c.1-.3.3-.4.5-.4s.4 0 .5.3zm-1.7-.6a3 3 0 0 0-.4 1.7c0 .7.2 1.3.4 1.6.3.4.7.6 1.2.6s1-.2 1.2-.6c.3-.4.4-.9.4-1.6 0-.7-.2-1.3-.4-1.7C11-6 10.6-6 10-6c-.6 0-1 .1-1.2.5z"/><path id="_R_G_L_20_G_D_1_P_0" d="M4.7-3.3h-.5L4.4-5h2.7v-1H3.4L3-2.5l.5.3a4.4 4.4 0 0 1 1.2-.2c.5 0 1 .1 1.2.3.3.3.4.6.4 1 0 .3 0 .5-.2.7l-.5.5-.9.1A4.3 4.3 0 0 1 3-.2v1l.8.3 1 .1c.6 0 1.1-.1 1.5-.3.5-.2.8-.5 1-.8.2-.4.3-.8.3-1.3s-.1-.9-.3-1.2c-.2-.3-.5-.6-.8-.7l-1.2-.3h-.6z"/><path id="_R_G_L_20_G_D_2_P_0" d="M-1.6-4c0-.4.2-.7.4-.9.2-.2.4-.3.7-.3.3 0 .6.1.8.3.2.2.3.5.4 1l.1 1.4L.7-1 .3 0a1 1 0 0 1-.8.2 1 1 0 0 1-.7-.3c-.2-.2-.3-.5-.4-.9l-.1-1.5V-4zm3.3-.5c-.2-.5-.4-1-.8-1.2a2 2 0 0 0-1.4-.5c-.6 0-1 .2-1.4.5-.3.3-.6.7-.8 1.3l-.2 2c0 .7.1 1.3.3 1.9.1.6.4 1 .8 1.3.3.3.8.4 1.3.4S.3 1.2.7.9c.3-.1.5-.4.7-.7l.4-1.1a8 8 0 0 0-.1-3.6z"/><path id="_R_G_L_20_G_D_3_P_0" d="M-5.2 1c.1.2.3.2.5.2l.5-.1c.2-.2.2-.4.2-.6 0-.3 0-.5-.2-.6a.8.8 0 0 0-.5-.1l-.5.1-.2.6c0 .3 0 .4.2.6z"/><path id="_R_G_L_20_G_D_4_P_0" d="M-6.5 0h-3.4l1.3-1.2 1-1c.3-.3.5-.6.6-1 .2-.3.3-.6.3-1s-.1-.7-.3-1c-.2-.3-.4-.5-.8-.7-.3-.2-.7-.2-1.1-.2h-1l-.8.4a5 5 0 0 0-.6.5l.6.7.8-.5.9-.2c.3 0 .6.1.8.3.2.2.3.4.3.8 0 .3 0 .5-.2.8 0 .2-.3.4-.5.7l-.9 1-1.8 1.8v.9h4.8v-1z"/><path id="_R_G_L_20_G_D_5_P_0" d="M-13.9-5c.2.1.3.4.3.6l-.1.6-.4.4-.5.3-.6-.4c-.2 0-.3-.2-.4-.3a.9.9 0 0 1-.1-.5c0-.3 0-.6.3-.7.2-.2.4-.3.8-.3.3 0 .5.1.7.3zm-2 3.7.5-.5.7-.4.1.1.7.4.4.4.2.5c0 .4-.1.6-.4.8-.2.2-.5.3-1 .3-.4 0-.7 0-1-.3a1 1 0 0 1-.3-.8c0-.2 0-.4.2-.5zm.2-4.6c-.4 0-.7.3-.9.5-.1.3-.3.6-.3 1l.2.7c.1.3.3.4.5.6l.6.5c-.3 0-.5.2-.8.4A1.8 1.8 0 0 0-17-.7 1.8 1.8 0 0 0-16 1l1.4.2c.4 0 .9 0 1.2-.2.4-.2.7-.4.9-.7.2-.3.3-.6.3-1s0-.7-.2-.9l-.6-.6a5 5 0 0 0-.8-.5l.7-.4.5-.6.2-.7c0-.4-.1-.7-.3-1l-.8-.5a3.1 3.1 0 0 0-2.3 0z"/></g><g id="_R_G_L_19_G" transform="translate(439.5 445)" fill="#575958" fill-opacity="1" fill-rule="nonzero"><path id="_R_G_L_19_G_D_0_P_0" d="M20.4-.2c-.2-.3-.3-.8-.3-1.4 0-.6.1-1 .3-1.4a1 1 0 0 1 1-.5c.5 0 .9.2 1 .5.2.3.3.8.3 1.4v.2c0 .5 0 1-.3 1.2-.2.3-.5.5-1 .5a1 1 0 0 1-1-.5zM21.8 1c.2 0 .4-.2.5-.3l.4-.4.2.7h1v-7.6h-1.2v2.9l-.4-.4a1.8 1.8 0 0 0-1.2-.4 2 2 0 0 0-1.6.7c-.4.5-.6 1.2-.6 2.1 0 1 .2 1.6.6 2 .4.6 1 .8 1.6.8l.7-.1z"/><path id="_R_G_L_19_G_D_1_P_0" d="m16.3-3.4.4.5.1.7h-2.4c0-.4.1-.8.4-1 .2-.2.5-.3.8-.3l.7.1zm-2-.7c-.3.2-.6.6-.8 1-.2.4-.3 1-.3 1.5 0 .6 0 1.2.3 1.6.2.4.6.7 1 .9.4.2.8.3 1.3.3h1l.9-.4V0a4.3 4.3 0 0 1-1.8.4c-.5 0-.9-.1-1.1-.4-.3-.3-.4-.7-.5-1.2H18V-2c0-.5-.1-.9-.3-1.3a2 2 0 0 0-.8-.8c-.4-.2-.8-.3-1.3-.3-.4 0-.9.1-1.3.3z"/><path id="_R_G_L_19_G_D_2_P_0" d="m11 0-.2-.5v-3h1.5v-.8h-1.5v-1.2h-.7l-.4 1.2-.8.4v.5h.8v2.9c0 .4 0 .8.2 1 .1.3.3.4.5.5l.9.2a3.2 3.2 0 0 0 1-.2V.1a3.3 3.3 0 0 1-.8.2L11 0z"/><path id="_R_G_L_19_G_D_3_P_0" d="m7.3-4.3-.6.4a2 2 0 0 0-.4.5L6-4.3h-.9v5.4h1.2v-3.5l.4-.5A1.5 1.5 0 0 1 8-3.3h.5l.1-1h-.2L8-4.5l-.7.1z"/><path id="_R_G_L_19_G_D_4_P_0" d="m2.3-3.4.4.5.1.7H.3c0-.4.2-.8.4-1 .3-.2.6-.3 1-.3l.6.1zM.3-4c-.4.2-.6.6-.9 1-.2.4-.3 1-.3 1.5 0 .6.2 1.2.4 1.6.2.4.5.7 1 .9.3.2.8.3 1.3.3h1l.9-.4V0a4.5 4.5 0 0 1-1.8.4C1.4.3 1 .2.7-.1.5-.4.3-.8.3-1.3H4V-2c0-.5 0-.9-.3-1.3a2 2 0 0 0-.8-.8c-.3-.2-.7-.3-1.2-.3s-1 .1-1.3.3z"/><path id="_R_G_L_19_G_D_5_P_0" d="m-3.4 1.1 2-5.4h-1.2l-1 3.2-.3.6-.1.6A5.6 5.6 0 0 0-4.5-1l-1-3.2h-1.3l2 5.4h1.3z"/><path id="_R_G_L_19_G_D_6_P_0" d="m-10.1-4.3-.6.3c-.2 0-.3.2-.4.4l-.2-.7h-1v5.4h1.2v-2.7c0-.6.1-1 .3-1.4.2-.3.6-.5 1.1-.5.4 0 .6.1.8.4.2.2.3.5.3.9V1h1.1v-3.5c0-.7-.2-1.2-.5-1.5a2 2 0 0 0-1.4-.5h-.7z"/><path id="_R_G_L_19_G_D_7_P_0" d="M-17.1-3c.2-.3.5-.5 1-.5.3 0 .6.1.8.3.2.1.3.3.4.6l.2 1c0 .4 0 .7-.2 1 0 .3-.2.5-.4.6-.2.2-.5.3-.8.3-.3 0-.6-.1-.8-.3-.2-.1-.3-.3-.4-.6a3 3 0 0 1-.2-1c0-.6.1-1 .4-1.4zM-14-3c-.2-.4-.5-.8-.9-1-.3-.2-.8-.3-1.3-.3s-1 .1-1.4.3c-.4.2-.6.5-.9 1-.2.4-.3.9-.3 1.5l.2 1.2.6.9c.2.2.4.4.8.5l1 .2c.4 0 .7 0 1-.2a2.2 2.2 0 0 0 1.4-1.4l.1-1.2c0-.6 0-1.1-.3-1.5z"/><path id="_R_G_L_19_G_D_8_P_0" d="M-20.7-5c.3 0 .6.2.8.3l.4-1-1-.3-1-.1c-.6 0-1 0-1.5.2l-1 .8-.7 1.1-.2 1.5c0 .8.1 1.4.3 2 .3.5.6 1 1.1 1.2.5.4 1.1.5 1.8.5h1l1-.3v-1a5.1 5.1 0 0 1-1.8.3 2 2 0 0 1-1.2-.3c-.4-.2-.6-.5-.8-1l-.2-1.4c0-.4 0-.8.2-1 0-.4.2-.7.4-1l.7-.5.9-.1h.8z"/></g><g id="_R_G_L_18_G" transform="translate(585 445)" fill="#575958" fill-opacity="1" fill-rule="nonzero"><path id="_R_G_L_18_G_D_0_P_0" d="M5.5-6.5v7.6h1.2V-.7l.6-.6L9 1.1h1.4L8-1.9l2.2-2.4H8.8L7.3-2.5l-.4.4-.3.4V-6.5h-1z"/><path id="_R_G_L_18_G_D_1_P_0" d="M1.3-4.3.7-4l-.4.4-.2-.7h-1v5.4H.4v-2.7c0-.6.1-1 .3-1.4.2-.3.6-.5 1.1-.5.4 0 .6.1.8.4.2.2.3.5.3.9V1h1.1v-3.5c0-.7-.1-1.2-.5-1.5A2 2 0 0 0 2-4.4h-.7z"/><path id="_R_G_L_18_G_D_2_P_0" d="M-3.6-4.3v2.7l-.1 1-.5.7-.8.2c-.4 0-.7-.1-.8-.3-.2-.3-.3-.6-.3-1v-3.3h-1.1v3.5c0 .5 0 .9.2 1.2l.7.6 1 .2h.7l.6-.4.4-.4.2.7h1v-5.4h-1.2z"/><path id="_R_G_L_18_G_D_3_P_0" d="M-9.9 2.9c.3-.2.6-.4.7-.8.2-.3.3-.8.3-1.3V-6h-1.2V.9l-.1.7-.4.4H-11.8v1h.9l1-.1z"/></g><g id="_R_G_L_17_G" transform="translate(693.5 445)" fill="#575958" fill-opacity="1" fill-rule="nonzero"><path id="_R_G_L_17_G_D_0_P_0" d="M8.2 0 8-.4v-3h1.5v-.8H8v-1.2h-.7l-.4 1.2L6-4v.5h.7v2.9c0 .4.1.8.3 1 .1.3.3.4.5.5l.9.2a3.2 3.2 0 0 0 1-.2V.1a3.3 3.3 0 0 1-.8.2L8.2 0z"/><path id="_R_G_L_17_G_D_1_P_0" d="m5.3-1.2-.5-.5-.9-.4-.8-.3-.3-.3-.1-.3c0-.2 0-.3.2-.4l.7-.1h.7L5-3l.4-1-.9-.2-.9-.1c-.6 0-1.1.1-1.5.4-.4.2-.6.6-.6 1s0 .6.2.8l.5.5.9.4.8.4c.2 0 .3.2.4.3v.3c0 .2 0 .3-.2.4-.1.2-.4.2-.8.2l-1-.1-.8-.3v1a3.9 3.9 0 0 0 1.8.3c.4 0 .9 0 1.2-.2.3-.1.6-.3.7-.5.2-.3.3-.6.3-1 0-.3 0-.5-.2-.7z"/><path id="_R_G_L_17_G_D_2_P_0" d="M-3-3c.2-.3.5-.5 1-.5.3 0 .6.1.8.3.2.1.3.3.4.6l.2 1c0 .4 0 .7-.2 1 0 .3-.2.5-.4.6-.2.2-.5.3-.8.3-.3 0-.6-.1-.8-.3C-3 0-3-.3-3.2-.6l-.2-1c0-.6.1-1 .4-1.4zM.2-3c-.2-.4-.5-.8-.9-1-.4-.2-.8-.3-1.3-.3s-1 .1-1.4.3c-.4.2-.6.5-.9 1-.2.4-.3.9-.3 1.5l.2 1.2.6.9c.2.2.4.4.8.5l1 .2c.4 0 .7 0 1-.2.4-.1.6-.3.8-.5.3-.3.5-.6.6-1l.1-1.1c0-.6 0-1.1-.3-1.5z"/><path id="_R_G_L_17_G_D_3_P_0" d="M-5.4 1.1v-1h-3V-6h-1.2V1h4.2z"/></g><g id="_R_G_L_16_G" transform="translate(817.5 445)" fill="#575958" fill-opacity="1" fill-rule="nonzero"><path id="_R_G_L_16_G_D_0_P_0" d="M23.4-4.3c-.2 0-.4.1-.5.3-.2 0-.4.2-.5.4l-.2-.7h-1v5.4h1.2v-2.7c0-.6.1-1 .4-1.4.1-.3.5-.5 1-.5.4 0 .7.1.8.4.2.2.3.5.3.9V1h1.2v-3.5c0-.7-.2-1.2-.6-1.5a2 2 0 0 0-1.4-.5h-.7z"/><path id="_R_G_L_16_G_D_1_P_0" d="M16.4-3c.2-.3.6-.5 1-.5.3 0 .6.1.8.3.2.1.4.3.4.6l.2 1c0 .4 0 .7-.2 1 0 .3-.2.5-.4.6-.2.2-.4.3-.8.3-.3 0-.5-.1-.8-.3-.2-.1-.3-.3-.4-.6a3 3 0 0 1-.1-1c0-.6 0-1 .3-1.4zm3.3-.1c-.3-.4-.6-.8-1-1-.3-.2-.8-.3-1.3-.3s-1 .1-1.3.3c-.4.2-.7.5-1 1L15-1.6c0 .4 0 .8.2 1.2 0 .3.3.6.5.9l.8.5 1 .2c.4 0 .8 0 1-.2a2.2 2.2 0 0 0 1.4-1.4l.2-1.2c0-.6-.1-1.1-.4-1.5z"/><path id="_R_G_L_16_G_D_2_P_0" d="M12.5-6.2c-.1 0-.2.2-.2.5l.2.4.5.2c.2 0 .3 0 .4-.2.2 0 .2-.2.2-.5 0-.2 0-.3-.2-.4a.7.7 0 0 0-.4-.2c-.2 0-.3 0-.5.2zm-.1 1.9v5.4h1.2v-5.4h-1.2z"/><path id="_R_G_L_16_G_D_3_P_0" d="M11-1.2c-.2-.2-.3-.4-.6-.5a5 5 0 0 0-.8-.4l-.8-.3-.4-.3V-3c0-.2 0-.3.2-.4l.6-.1h.8l.7.4.4-1-.9-.2-1-.1c-.5 0-1 .1-1.4.4-.4.2-.6.6-.6 1s0 .6.2.8l.5.5.9.4.8.4c.2 0 .3.2.3.3l.1.3c0 .2 0 .3-.2.4-.2.2-.5.2-.8.2L8 .2l-.8-.3v1a3.7 3.7 0 0 0 1.7.3c.5 0 1 0 1.3-.2l.7-.5c.2-.3.3-.6.3-1l-.2-.7z"/><path id="_R_G_L_16_G_D_4_P_0" d="m5.3-4.3-.6.4a2 2 0 0 0-.4.5L4-4.3h-.9v5.4h1.2v-3.5l.4-.5A1.5 1.5 0 0 1 6-3.3a2.5 2.5 0 0 1 .5 0l.1-1h-.2L6-4.5l-.7.1z"/><path id="_R_G_L_16_G_D_5_P_0" d="m.3-3.4.4.5.1.7h-2.5c0-.4.2-.8.4-1 .3-.2.6-.3 1-.3l.6.1zm-2-.7c-.4.2-.7.6-.8 1-.3.4-.4 1-.4 1.5 0 .6.1 1.2.4 1.6.2.4.5.7 1 .9.3.2.8.3 1.3.3h1l.8-.4V0A4.5 4.5 0 0 1 0 .3C-.6.3-1 .2-1.3-.1c-.2-.3-.4-.7-.4-1.2H2V-2c0-.5 0-.9-.3-1.3A2 2 0 0 0 .8-4c-.3-.2-.7-.3-1.2-.3s-1 .1-1.3.3z"/><path id="_R_G_L_16_G_D_6_P_0" d="m-5.4 1.1 2-5.4h-1.2l-1 3.2-.3.6-.1.6A5.6 5.6 0 0 0-6.5-1l-1-3.2h-1.3l2 5.4h1.3z"/><path id="_R_G_L_16_G_D_7_P_0" d="m-12.1-4.3-.6.3c-.2 0-.3.2-.4.4l-.2-.7h-1v5.4h1.2v-2.7c0-.6.1-1 .3-1.4.2-.3.6-.5 1.1-.5.4 0 .6.1.8.4.2.2.3.5.3.9V1h1.1v-3.5c0-.7-.2-1.2-.5-1.5a2 2 0 0 0-1.4-.5h-.7z"/><path id="_R_G_L_16_G_D_8_P_0" d="M-19.1-3c.2-.3.5-.5 1-.5.3 0 .6.1.8.3.2.1.3.3.4.6l.2 1c0 .4 0 .7-.2 1 0 .3-.2.5-.4.6-.2.2-.5.3-.8.3-.3 0-.6-.1-.8-.3-.2-.1-.3-.3-.4-.6a3 3 0 0 1-.2-1c0-.6.1-1 .4-1.4zM-16-3c-.2-.4-.5-.8-.9-1-.3-.2-.8-.3-1.3-.3s-1 .1-1.4.3c-.4.2-.6.5-.9 1-.2.4-.3.9-.3 1.5l.2 1.2.6.9c.2.2.4.4.8.5l1 .2c.4 0 .7 0 1-.2a2.2 2.2 0 0 0 1.4-1.4l.1-1.2c0-.6 0-1.1-.3-1.5z"/><path id="_R_G_L_16_G_D_9_P_0" d="M-22.7-5c.3 0 .6.2.8.3l.4-1-1-.3-1-.1c-.6 0-1 0-1.5.2l-1 .8-.7 1.1-.2 1.5c0 .8.1 1.4.3 2 .3.5.6 1 1.1 1.2.5.4 1.1.5 1.8.5h1l1-.3v-1a5.1 5.1 0 0 1-1.8.3 2 2 0 0 1-1.2-.3c-.4-.2-.6-.5-.8-1l-.2-1.4c0-.4 0-.8.2-1 0-.4.2-.7.4-1l.7-.5.9-.1h.8z"/></g><g id="_R_G_L_15_G" fill="#39393b" fill-opacity="1" fill-rule="nonzero"><path id="_R_G_L_15_G_D_0_P_0" d="M29.2-1.6c-.1-.3-.3-.5-.6-.6l-1-.5a32 32 0 0 1-1.4-.7l-.2-.4c0-.2.1-.4.3-.5l.8-.1 1 .1.8.3.4-1a5.8 5.8 0 0 0-2.1-.5c-.8 0-1.4.2-1.8.5-.5.3-.7.7-.7 1.3 0 .3 0 .6.2.9l.6.6 1 .5 1 .4.5.3v.4c0 .2 0 .4-.2.6l-1 .2a6.3 6.3 0 0 1-2.1-.5V.8l.9.3 1.2.1c.6 0 1 0 1.4-.2.4-.1.7-.4 1-.7l.2-1c0-.4 0-.7-.2-1z"/><path id="_R_G_L_15_G_D_1_P_0" d="M23.1-8h-1.4v9.1h1.4V-8z"/><path id="_R_G_L_15_G_D_2_P_0" d="M18.4-1.4c0 .5-.1 1-.4 1.2-.3.3-.7.4-1.2.4-.3 0-.6 0-.8-.2-.2-.2-.3-.4-.3-.7 0-.4.2-.7.5-.9.2-.2.7-.3 1.4-.3h.8v.5zm-2.3-4-1.1.5.4 1 1-.4a3 3 0 0 1 .9-.1c.3 0 .6 0 .8.3.3.1.3.5.3 1v.3h-1c-1 0-1.8.2-2.3.5-.5.4-.8.9-.8 1.6 0 .4.1.8.3 1 .2.4.4.6.7.7.3.2.6.2 1 .2h1l.6-.4.6-.6.3 1h1v-4.4c0-.8-.2-1.4-.6-1.7-.4-.4-1-.6-1.9-.6-.4 0-.8 0-1.2.2z"/><path id="_R_G_L_15_G_D_3_P_0" d="M11.3-4.2c.2.1.3.3.4.6l.2.8h-3c0-.5.2-1 .5-1.2.3-.3.6-.5 1-.5s.6.1.8.3zm-2.4-.9c-.5.3-.8.7-1 1.2-.3.5-.4 1-.4 1.8s.1 1.4.4 1.9c.3.5.6.8 1.1 1 .5.3 1 .4 1.7.4h1.2l1-.4V-.3a4.7 4.7 0 0 1-2.1.5c-.6 0-1-.2-1.4-.6a2 2 0 0 1-.5-1.4h4.3v-.7c0-.7 0-1.2-.3-1.6-.2-.5-.6-.8-1-1a3 3 0 0 0-1.5-.4A3 3 0 0 0 9-5z"/><path id="_R_G_L_15_G_D_4_P_0" d="M1.8-.5c-.3-.3-.4-.9-.4-1.6 0-.7.2-1.3.4-1.7.3-.4.7-.6 1.2-.6.6 0 1 .2 1.2.6.3.4.4 1 .4 1.7v.2c0 .7-.1 1.2-.4 1.5C4 0 3.5.1 3 .1S2 0 1.8-.5zm1.6 1.6A2.2 2.2 0 0 0 4.5.2l.3 1H6V-8H4.5v3l.1.5a2 2 0 0 0-1-.9h-1c-.8 0-1.4.2-1.9.8-.4.5-.7 1.4-.7 2.5C0-1.1.2-.1.7.4c.5.6 1.1.8 1.9.8l.8-.1z"/><path id="_R_G_L_15_G_D_5_P_0" d="m-7.8-5.4-.7.4-.5.5-.3-.9h-1v6.5H-9V-2c0-.7.2-1.3.4-1.7.2-.4.7-.6 1.3-.6.4 0 .8.2 1 .4.2.3.3.6.3 1.1v4h1.3V-3c0-.8-.1-1.4-.6-1.8-.4-.4-1-.6-1.7-.6l-.8.1z"/><path id="_R_G_L_15_G_D_6_P_0" d="M-16.2-3.8c.2-.4.6-.6 1.2-.6.4 0 .7.1 1 .3.2.2.4.4.5.8l.2 1.2-.2 1.2c-.1.3-.3.6-.6.8l-.9.2c-.4 0-.7 0-1-.3-.2-.1-.4-.4-.5-.7l-.1-1.2c0-.8.1-1.3.4-1.7zm3.9-.2c-.3-.5-.6-.8-1-1.1-.5-.3-1-.4-1.7-.4-.6 0-1.2.1-1.6.4-.5.3-.8.6-1 1.1A4 4 0 0 0-18-2c0 .5 0 1 .2 1.4.1.4.3.8.6 1 .3.3.6.6 1 .7.3.2.7.2 1.2.2s.9 0 1.3-.2a2.7 2.7 0 0 0 1.6-1.7l.2-1.4c0-.8-.2-1.4-.4-1.9z"/><path id="_R_G_L_15_G_D_7_P_0" d="m-20.2-7.5-1.2 5-.2.8-.1.7-.1.7v-.5l-.2-.5-.1-.6-.1-.5-1.5-5H-25l-1.4 5a8.4 8.4 0 0 0-.3 1v.6l-.2.5v-.5l-.1-.6-.1-.5-.2-.5-1.2-5h-1.4l2.2 8.5h1.6l1.4-5.1v-.5l.2-.5v-.5l.1-.3.1.3.1.5.1.5.2.5 1.4 5.1h1.5l2.3-8.6h-1.5z"/></g><g id="_R_G_L_14_G" transform="translate(71 387.5)"><path id="_R_G_L_14_G_D_0_P_0" fill="#39393b" fill-opacity="1" fill-rule="nonzero" d="M-2-7.2c-.4-.2-.6-.4-.7-.6C-3-8-3-8.3-3-8.6c0-.3 0-.6.2-.8l.7-.5c.3-.2.6-.2 1-.3v3.5l-1-.5zM.2-4.4c.5.2 1 .3 1.2.5l.7.6.2.8c0 .4-.2.8-.5 1-.4.4-.9.5-1.6.6v-3.5zM.3 3V.8C1.6.6 2.6.3 3.3-.3a3 3 0 0 0 1-2.4c0-.7-.1-1.2-.5-1.7-.3-.4-.8-.8-1.3-1L.3-6.4v-3.9a9.3 9.3 0 0 1 3 .7L4-11a10.7 10.7 0 0 0-3.6-.8v-1.6H-1v1.7c-.8 0-1.5.2-2.1.4-.6.3-1 .7-1.4 1.2a3 3 0 0 0-.5 1.7c0 .6.2 1.2.5 1.6.2.5.7.9 1.3 1.2l2.2 1v3.9a9.9 9.9 0 0 1-4-.9V.1l1.8.5c.7.2 1.4.2 2.2.2v2H.3z"/></g><g id="_R_G_L_13_G_N_16_T_0"><g id="_R_G_L_13_G" transform="translate(-23 35)"><path id="_R_G_L_13_G_D_0_P_0" fill="#39393b" fill-opacity="1" fill-rule="nonzero" d="M-2-7.2c-.4-.2-.6-.4-.7-.6C-3-8-3-8.3-3-8.6c0-.3 0-.6.2-.8l.7-.5c.3-.2.6-.2 1-.3v3.5l-1-.5zM.2-4.4c.5.2 1 .3 1.2.5l.7.6.2.8c0 .4-.2.8-.5 1-.4.4-.9.5-1.6.6v-3.5zM.3 3V.8C1.6.6 2.6.3 3.3-.3a3 3 0 0 0 1-2.4c0-.7-.1-1.2-.5-1.7-.3-.4-.8-.8-1.3-1L.3-6.4v-3.9a9.3 9.3 0 0 1 3 .7L4-11a10.7 10.7 0 0 0-3.6-.8v-1.6H-1v1.7c-.8 0-1.5.2-2.1.4-.6.3-1 .7-1.4 1.2a3 3 0 0 0-.5 1.7c0 .6.2 1.2.5 1.6.2.5.7.9 1.3 1.2l2.2 1v3.9a9.9 9.9 0 0 1-4-.9V.1l1.8.5c.7.2 1.4.2 2.2.2v2H.3z"/></g></g><g id="_R_G_L_12_G" transform="translate(94.5 387.5)" fill="#39393b" fill-opacity="1" fill-rule="nonzero"><path id="_R_G_L_12_G_D_0_P_0" d="M8.6-8.6c.1-.8.4-1.5.8-1.9.4-.4 1-.6 1.7-.6s1.2.2 1.6.6c.4.4.7 1 .9 1.9.2.8.3 1.9.3 3.1 0 1.3-.1 2.4-.3 3.2-.2.9-.5 1.5-.9 2-.4.3-1 .6-1.6.6-.7 0-1.3-.3-1.7-.7-.4-.4-.7-1-.8-1.9-.2-.8-.3-1.9-.3-3.2 0-1.2 0-2.3.3-3.1zm6.8-.8c-.4-1.1-1-2-1.6-2.5a4 4 0 0 0-2.7-.9c-1.2 0-2.1.3-2.8.9a5 5 0 0 0-1.5 2.5c-.3 1.1-.5 2.4-.5 4 0 1.5.2 2.8.5 4A5 5 0 0 0 8.4 1a4 4 0 0 0 2.7.9c.8 0 1.6-.2 2.2-.5.6-.3 1-.8 1.5-1.4.3-.7.6-1.4.8-2.4a17 17 0 0 0-.3-7z"/><path id="_R_G_L_12_G_D_1_P_0" d="M-2.9-8.6a4 4 0 0 1 .9-1.9c.4-.4 1-.6 1.6-.6.7 0 1.3.2 1.7.6.4.4.7 1 .9 1.9l.2 3.1c0 1.3 0 2.4-.2 3.2-.2.9-.5 1.5-1 2C1 0 .4.2-.3.2-1 .3-1.6 0-2-.4c-.4-.4-.7-1-.9-1.9a16.2 16.2 0 0 1 0-6.3zM4-9.4c-.3-1.1-.9-2-1.6-2.5-.7-.6-1.6-.9-2.7-.9s-2 .3-2.7.9a5 5 0 0 0-1.6 2.5C-5-8.3-5-7-5-5.4c0 1.5.1 2.8.5 4C-4.3-.5-3.7.3-3 1A4 4 0 0 0-.4 2c.9 0 1.6-.2 2.2-.5A4 4 0 0 0 3.3 0c.4-.7.7-1.4.9-2.4a16.2 16.2 0 0 0-.3-7z"/><path id="_R_G_L_12_G_D_2_P_0" d="M-10-10.7c.4.3.6.8.6 1.4 0 .5-.1.9-.3 1.2l-.8.8a9 9 0 0 1-1.2.6c-.5-.1-1-.4-1.3-.6-.4-.2-.7-.5-.9-.8a2 2 0 0 1-.3-1.2c0-.6.2-1 .7-1.4.4-.4 1-.5 1.7-.5s1.3.1 1.7.5zm-4.4 7.5 1-1c.3-.3.8-.5 1.4-.8l.3.2 1.4.7c.5.3.8.6 1 1 .3.3.4.6.4 1.1 0 .7-.3 1.3-.8 1.7-.5.5-1.2.7-2.1.7-1 0-1.7-.3-2.2-.7-.4-.4-.7-1-.7-1.7 0-.4.1-.9.3-1.2zm.4-9.2c-.6.3-1.2.7-1.5 1.2a3 3 0 0 0-.6 1.8A3.4 3.4 0 0 0-15-6.7l1.3 1a8 8 0 0 0-1.5.8c-.4.4-.8.8-1 1.3-.3.5-.5 1-.5 1.7 0 .8.2 1.5.6 2 .4.6 1 1 1.6 1.3.7.3 1.6.5 2.6.5a6 6 0 0 0 2.5-.5C-8.6 1.1-8 .7-7.6.1c.4-.6.6-1.3.6-2s-.2-1.3-.5-1.8c-.2-.5-.6-.9-1.1-1.2l-1.6-1 1.4-.8c.4-.3.7-.7 1-1.2.2-.4.3-.9.3-1.5a3 3 0 0 0-.5-1.8c-.4-.6-1-1-1.6-1.2a6 6 0 0 0-2.2-.4c-.8 0-1.5.2-2.2.4z"/></g><g id="_R_G_L_11_G_N_16_T_0"><g id="_R_G_L_11_G" transform="translate(.5 35)" fill="#39393b" fill-opacity="1" fill-rule="nonzero"><path id="_R_G_L_11_G_D_0_P_0" d="M8.6-8.6c.1-.8.4-1.5.8-1.9.4-.4 1-.6 1.7-.6s1.2.2 1.6.6c.4.4.7 1 .9 1.9.2.8.3 1.9.3 3.1 0 1.3-.1 2.4-.3 3.2-.2.9-.5 1.5-.9 2-.4.3-1 .6-1.6.6-.7 0-1.3-.3-1.7-.7-.4-.4-.7-1-.8-1.9-.2-.8-.3-1.9-.3-3.2 0-1.2 0-2.3.3-3.1zm6.8-.8c-.4-1.1-1-2-1.6-2.5a4 4 0 0 0-2.7-.9c-1.2 0-2.1.3-2.8.9a5 5 0 0 0-1.5 2.5c-.3 1.1-.5 2.4-.5 4 0 1.5.2 2.8.5 4A5 5 0 0 0 8.4 1a4 4 0 0 0 2.7.9c.8 0 1.6-.2 2.2-.5.6-.3 1-.8 1.5-1.4.3-.7.6-1.4.8-2.4a17 17 0 0 0-.3-7z"/><path id="_R_G_L_11_G_D_1_P_0" d="M-2.9-8.6a4 4 0 0 1 .9-1.9c.4-.4 1-.6 1.6-.6.7 0 1.3.2 1.7.6.4.4.7 1 .9 1.9l.2 3.1c0 1.3 0 2.4-.2 3.2-.2.9-.5 1.5-1 2C1 0 .4.2-.3.2-1 .3-1.6 0-2-.4c-.4-.4-.7-1-.9-1.9a16.2 16.2 0 0 1 0-6.3zM4-9.4c-.3-1.1-.9-2-1.6-2.5-.7-.6-1.6-.9-2.7-.9s-2 .3-2.7.9a5 5 0 0 0-1.6 2.5C-5-8.3-5-7-5-5.4c0 1.5.1 2.8.5 4C-4.3-.5-3.7.3-3 1A4 4 0 0 0-.4 2c.9 0 1.6-.2 2.2-.5A4 4 0 0 0 3.3 0c.4-.7.7-1.4.9-2.4a16.2 16.2 0 0 0-.3-7z"/><path id="_R_G_L_11_G_D_2_P_0" d="m-12.9 0-.9-.9a4 4 0 0 1-.7-2.4c0-.4.1-.8.4-1.1a3 3 0 0 1 1-1c.5-.2 1-.4 1.6-.4.9 0 1.5.3 2 .8.4.5.6 1.2.6 2 0 1.2-.2 2-.7 2.5-.5.5-1.2.8-2 .8-.5 0-.9-.1-1.3-.3zM-16-1.7c.2.7.6 1.4 1 2a4.4 4.4 0 0 0 3.5 1.5c1 0 1.8-.2 2.5-.6A4 4 0 0 0-7.5-.4c.4-.7.5-1.5.5-2.5a5 5 0 0 0-.5-2.4c-.3-.7-.8-1.2-1.4-1.5-.6-.3-1.3-.5-2.2-.5-.6 0-1 0-1.5.2l-1.1.6-.8 1c0-1.2.2-2.1.4-3a4 4 0 0 1 1.5-2c.7-.4 1.6-.7 2.8-.7a7 7 0 0 1 1.8.3v-1.7l-.9-.1h-1c-1 0-2 0-2.7.4-.7.3-1.4.7-1.9 1.3a6 6 0 0 0-1.2 1.8 17 17 0 0 0-.8 4.8c0 1 .1 2 .4 2.8z"/></g></g><g id="_R_G_L_10_G" transform="translate(104.5 474.5)" fill="#305371" fill-opacity="1" fill-rule="nonzero"><path id="_R_G_L_10_G_D_0_P_0" d="m36.9-1.8-.5-.5-.9-.4a14.4 14.4 0 0 1-1-.6l-.1-.2c0-.1 0-.2.2-.3h1.2l.8.3.4-1-1-.4h-1a3 3 0 0 0-1.5.3c-.4.3-.6.7-.6 1.2 0 .3 0 .5.2.7 0 .2.3.4.5.6l.8.4.8.3.3.3.1.2c0 .2 0 .3-.2.4l-.6.1a4 4 0 0 1-1-.1L33-.8V.3a4.2 4.2 0 0 0 1.8.3c.5 0 1 0 1.3-.2.4-.1.6-.3.8-.6.2-.2.3-.6.3-1l-.2-.7z"/><path id="_R_G_L_10_G_D_1_P_0" d="M28.4-.9c-.2-.3-.3-.7-.3-1.2s.1-1 .3-1.2c.2-.3.4-.5.8-.5s.7.2.9.5l.2 1.2v.2c0 .4 0 .8-.3 1-.1.3-.4.4-.8.4a.9.9 0 0 1-.8-.4zm1 1.5.5-.3.3-.4.4.7h1.1V-7h-1.5v2.4l.1.4-.4-.4-.5-.3h-.7c-.6 0-1.1.2-1.5.7-.4.4-.6 1.2-.6 2 0 1 .2 1.7.6 2.2.4.5.9.7 1.5.7l.7-.1z"/><path id="_R_G_L_10_G_D_2_P_0" d="m24.8-4.8-.6.3-.4.6-.3-1h-1.1V.6h1.5v-2.8l.1-.6c0-.2.2-.4.3-.5l.5-.2a2 2 0 0 1 1 0L26-5h-1.1z"/><path id="_R_G_L_10_G_D_3_P_0" d="M19.4-1.5c0 .4-.1.6-.3.8-.3.2-.5.3-.9.3l-.5-.1-.2-.5c0-.3.1-.5.3-.6.2-.2.5-.3 1-.3h.6v.4zm-2-3.3-1 .3.6 1 .8-.3h.7l.6.1c.2.2.3.4.3.7v.2h-1c-.8 0-1.4.2-1.8.5-.4.3-.6.7-.6 1.3 0 .4 0 .7.2 1l.6.5.9.2h.8l.5-.4c.2 0 .3-.3.5-.4l.3.7h1V-3c0-.7-.1-1.2-.5-1.5-.4-.3-1-.5-1.7-.5-.4 0-.8 0-1.1.2z"/><path id="_R_G_L_10_G_D_4_P_0" d="M9.8-7V.6h1.5V-3l.4-.6.8-.2c.3 0 .5.1.6.3.2.2.2.5.2 1V.5h1.5V-3c0-.4 0-.8-.2-1.1l-.7-.7-1-.2-.7.1c-.2 0-.3.2-.5.3l-.4.4h-.1V-7H9.9z"/><path id="_R_G_L_10_G_D_5_P_0" d="m7.8.6.7-.3V-1l-.7.4H6.3a1 1 0 0 1-.3-.6l-.2-1c0-.3 0-.6.2-.8 0-.3.2-.5.3-.6l.7-.2.6.1.6.3.5-1.2A3.5 3.5 0 0 0 7-5c-.5 0-1 .1-1.4.3-.4.2-.7.5-1 1-.2.4-.3 1-.3 1.6 0 .7.1 1.2.3 1.6.2.4.5.7.9.9.3.2.8.3 1.3.3l1-.1z"/><path id="_R_G_L_10_G_D_6_P_0" d="M1.8-6.8c-.2 0-.3.3-.3.5 0 .3.1.5.3.6l.5.2c.3 0 .4 0 .6-.2.2-.1.2-.3.2-.6s0-.4-.2-.5a1 1 0 0 0-.6-.2 1 1 0 0 0-.5.2zm-.2 2V.5H3v-5.5H1.6z"/><path id="_R_G_L_10_G_D_7_P_0" d="M-1.9-5c.3 0 .4.3.4.6 0 .4-.1.6-.3.8l-1.1.2h-.5v-1.9h.5c.5 0 .8 0 1 .2zm-3-1.5V.6h1.5v-2.7h.8L-.9.6H.8l-2.1-3.1.7-.4.4-.6c.2-.3.2-.6.2-.9 0-.5 0-.9-.3-1.2-.2-.3-.5-.6-1-.7-.3-.2-.9-.2-1.5-.2H-5z"/><path id="_R_G_L_10_G_D_8_P_0" d="M-10.6-1.5c0 .4-.1.6-.4.8-.2.2-.4.3-.8.3a1 1 0 0 1-.5-.1l-.2-.5c0-.3.1-.5.3-.6.2-.2.5-.3 1-.3h.6v.4zm-2-3.3-1 .3.6 1 .7-.3h.8l.7.1.2.7v.2h-1c-.8 0-1.4.2-1.8.5-.4.3-.6.7-.6 1.3 0 .4 0 .7.2 1l.6.5.9.2h.7l.6-.4c.2 0 .3-.3.5-.4l.3.7h1V-3c0-.7-.2-1.2-.5-1.5-.4-.3-1-.5-1.7-.5-.4 0-.8 0-1.1.2z"/><path id="_R_G_L_10_G_D_9_P_0" d="M-16.5-6.8c-.2 0-.3.3-.3.5 0 .3.1.5.3.6l.5.2c.3 0 .4 0 .6-.2.2-.1.3-.3.3-.6s-.1-.4-.3-.5A1 1 0 0 0-16-7a1 1 0 0 0-.5.2zm-.2 2V.5h1.5v-5.5h-1.5z"/><path id="_R_G_L_10_G_D_10_P_0" d="M-18.9-4.8c-.2 0-.4.2-.5.3l-.4.6h-.1l-.2-1h-1.1V.6h1.4v-2.8c0-.2 0-.4.2-.6a1.2 1.2 0 0 1 .8-.7 2.1 2.1 0 0 1 1 0l.1-1.4h-1.2z"/><path id="_R_G_L_10_G_D_11_P_0" d="M-24.3-1.5c0 .4 0 .6-.3.8-.2.2-.5.3-.8.3a1 1 0 0 1-.5-.1c-.2-.1-.2-.3-.2-.5 0-.3 0-.5.3-.6.2-.2.5-.3 1-.3h.5v.4zm-1.9-3.3-1 .3.6 1 .7-.3h.8l.6.1c.2.2.2.4.2.7v.2h-1c-.7 0-1.3.2-1.7.5-.4.3-.6.7-.6 1.3 0 .4 0 .7.2 1 .1.2.3.4.6.5l.8.2h.8l.6-.4.5-.4.3.7h1V-3c0-.7-.2-1.2-.6-1.5-.4-.3-1-.5-1.7-.5-.3 0-.7 0-1 .2z"/><path id="_R_G_L_10_G_D_12_P_0" d="m-32.2.6 1.9-5.6V.6h1.3v-7.1h-2l-1.8 5.4-1.7-5.4h-2.1V.6h1.4v-4.1a21.7 21.7 0 0 0-.1-1.5l1.7 5.6h1.4z"/></g><g id="_R_G_L_9_G" transform="translate(49.5 472.5)"><path id="_R_G_L_9_G_D_0_P_0" fill="#93bbf6" fill-opacity="1" fill-rule="nonzero" d="M0-9.5a9.5 9.5 0 1 1 0 19 9.5 9.5 0 0 1 0-19z"/></g><g id="_R_G_L_8_G" transform="translate(49.5 472.5)"><path id="_R_G_L_8_G_D_0_P_0" fill="#fff" fill-opacity="1" fill-rule="nonzero" d="M-2-1.8c0 1 .9 2 2 2a2 2 0 0 0 2-2c0-1-.9-2-2-2a2 2 0 0 0-2 2zm4.8 0c0 1-.5 1.8-1.2 2.3 1.7.6 2.9 2.1 2.9 4h-.8C3.8 2.5 2.1.9 0 .9c-2 0-3.8 1.6-3.8 3.6h-.7c0-1.9 1.2-3.4 3-4a2.7 2.7 0 0 1-1.3-2.3c0-1.5 1.2-2.7 2.8-2.7 1.6 0 2.8 1.2 2.8 2.7z"/></g><g id="_R_G_L_7_G_N_4_T_0" transform="translate(923 145.9)"><g id="_R_G_L_7_G" transform="translate(-4.5 22.3)" fill="#39393b" fill-opacity="1" fill-rule="nonzero"><path id="_R_G_L_7_G_D_0_P_0" d="M4.4-7a9 9 0 0 0-.9.1l.4-4h5.5v-1.7H2.1l-.5 6.9 1 .5 1-.2H5c1.1 0 2 .2 2.6.6.5.5.8 1.2.8 2S8.2-1.4 8-1c-.3.5-.7.8-1.2 1-.5.2-1.1.3-1.8.3a8 8 0 0 1-3.7-.9v1.8c.4.3 1 .5 1.6.6l2.1.2c1.1 0 2.1-.2 3-.6.7-.4 1.3-1 1.8-1.6a5 5 0 0 0 .6-2.6c0-.9-.2-1.7-.6-2.3-.4-.6-1-1.1-1.6-1.4-.7-.4-1.6-.5-2.5-.5H4.4z"/><path id="_R_G_L_7_G_D_1_P_0" d="m-6.6 1.7 5.8-12.9v-1.4h-9.8v1.8H-3L-8.7 1.7h2.1z"/></g></g><g id="_R_G_L_6_G_N_4_T_0" transform="translate(923 145.9)"><g id="_R_G_L_6_G" transform="translate(15.5 22.3)"><path id="_R_G_L_6_G_D_0_P_0" fill="#b9babc" fill-opacity="1" fill-rule="nonzero" d="M5.6-5c.3.6.4 1.4.4 2.4S5.8-.8 5.6-.3c-.2.6-.6.8-1 .8-.6 0-1-.3-1.1-.8C3.2-.8 3-1.6 3-2.6c0-1 .1-1.8.4-2.3.2-.5.5-.8 1-.8s.9.3 1.1.8zm-3.4-.9c-.5.8-.7 1.9-.7 3.3A6 6 0 0 0 2.3.7c.5.8 1.2 1.2 2.2 1.2 1 0 1.8-.4 2.3-1.2.5-.8.8-1.9.8-3.3S7.3-5.1 6.8-6a2.6 2.6 0 0 0-2.3-1.2c-1 0-1.8.4-2.3 1.2zm1-6.7-8 14.3H-3l8-14.3H3.1zm-6.6 2c.3.5.4 1.3.4 2.3 0 1-.1 1.8-.4 2.3-.2.5-.6.8-1 .8-.5 0-.9-.3-1.1-.8-.3-.5-.4-1.3-.4-2.3 0-1 .2-1.8.4-2.3.2-.6.5-.8 1-.8s.9.3 1.1.8zm-3.4-1c-.5.8-.7 1.9-.7 3.3A6 6 0 0 0-6.7-5c.5.8 1.2 1.2 2.2 1.2 1 0 1.9-.4 2.4-1.2.5-.8.7-1.9.7-3.3s-.3-2.5-.8-3.3a2.6 2.6 0 0 0-2.3-1.2c-1 0-1.8.4-2.3 1.2z"/></g></g><g id="_R_G_L_5_G" transform="translate(81.5 368.5)" fill="#b9babc" fill-opacity="1" fill-rule="nonzero"><path id="_R_G_L_5_G_D_0_P_0" d="m15.3 0-.2-.6v-2.6h1.4V-4h-1.4v-1.1h-.6l-.4 1-.7.4v.5h.7v2.6c0 .4 0 .7.2 1l.5.4.7.1h.6l.4-.2V0a2.3 2.3 0 0 1-.7 0h-.5z"/><path id="_R_G_L_5_G_D_1_P_0" d="m10.2-4-.5.2-.4.4L9-4h-.8V.8h1v-2.4c0-.5 0-1 .3-1.2.2-.3.5-.5 1-.5.3 0 .5.1.7.3l.2.9v3h1v-3.2c0-.7-.1-1.1-.4-1.4-.3-.3-.8-.4-1.3-.4h-.6z"/><path id="_R_G_L_5_G_D_2_P_0" d="M5.7-4v3.4l-.5.5-.7.2c-.3 0-.6-.1-.7-.3-.2-.2-.3-.5-.3-.8v-3h-1V-1c0 .5 0 .8.2 1 .1.3.3.5.6.6.3.2.6.2 1 .2h.5l.6-.3.4-.4.2.6h.8V-4h-1z"/><path id="_R_G_L_5_G_D_3_P_0" d="M-1.9-2.8c.2-.3.5-.5 1-.5l.7.2.4.6v1.9l-.4.5-.7.2c-.3 0-.6 0-.7-.2-.2-.1-.4-.3-.4-.6a3 3 0 0 1-.2-.9c0-.5.1-1 .3-1.2zm3-.2a2 2 0 0 0-.8-.8L-1-4.1c-.5 0-1 0-1.3.3A2 2 0 0 0-3-3a3 3 0 0 0-.2 1.4l.1 1c.1.4.3.7.5.9l.7.5 1 .1.9-.1A2 2 0 0 0 1.2-.5l.2-1.1c0-.5-.1-1-.3-1.4z"/><path id="_R_G_L_5_G_D_4_P_0" d="m-7-4-.5.7h-.1c-.2-.3-.3-.5-.6-.6A2.1 2.1 0 0 0-9.7-4l-.5.2-.3.4-.2-.6h-.8V.8h1v-2.4l.1-1c0-.2.2-.4.4-.5l.6-.2.5.1c.2.1.3.3.3.4l.1.6v3h1v-2.5c0-.5.1-1 .3-1.2.2-.2.5-.4.9-.4.3 0 .5.1.7.3l.2.8v3h1v-3.1c0-.7-.1-1.1-.4-1.4C-5.1-4-5.5-4-6-4c-.3 0-.6 0-1 .2z"/><path id="_R_G_L_5_G_D_5_P_0" d="M-14-1c0 .3-.1.6-.4.8-.2.2-.5.3-.8.3l-.6-.1c-.2-.1-.2-.3-.2-.6 0-.2 0-.4.3-.6.2-.2.5-.2 1-.3h.7v.4zm-1.8-3c-.3 0-.6.2-.8.3l.3.7.7-.2.7-.1c.3 0 .5 0 .7.2l.2.7v.3h-.8c-.8 0-1.4.2-1.7.4-.4.3-.6.6-.6 1.1 0 .4 0 .7.2.9l.5.5.8.1h.7l.5-.3.5-.4.2.6h.7v-3.2c0-.6-.1-1-.5-1.3-.3-.3-.7-.4-1.3-.4l-1 .1z"/></g><g id="_R_G_L_4_G_N_16_T_0"><g id="_R_G_L_4_G" transform="translate(-12.5 15.8)" fill="#b9babc" fill-opacity="1" fill-rule="nonzero"><path id="_R_G_L_4_G_D_0_P_0" d="m15.3 0-.2-.6v-2.6h1.4V-4h-1.4v-1.1h-.6l-.4 1-.7.4v.5h.7v2.6c0 .4 0 .7.2 1l.5.4.7.1h.6l.4-.2V0a2.3 2.3 0 0 1-.7 0h-.5z"/><path id="_R_G_L_4_G_D_1_P_0" d="m10.2-4-.5.2-.4.4L9-4h-.8V.8h1v-2.4c0-.5 0-1 .3-1.2.2-.3.5-.5 1-.5.3 0 .5.1.7.3l.2.9v3h1v-3.2c0-.7-.1-1.1-.4-1.4-.3-.3-.8-.4-1.3-.4h-.6z"/><path id="_R_G_L_4_G_D_2_P_0" d="M5.7-4v3.4l-.5.5-.7.2c-.3 0-.6-.1-.7-.3-.2-.2-.3-.5-.3-.8v-3h-1V-1c0 .5 0 .8.2 1 .1.3.3.5.6.6.3.2.6.2 1 .2h.5l.6-.3.4-.4.2.6h.8V-4h-1z"/><path id="_R_G_L_4_G_D_3_P_0" d="M-1.9-2.8c.2-.3.5-.5 1-.5l.7.2.4.6v1.9l-.4.5-.7.2c-.3 0-.6 0-.7-.2-.2-.1-.4-.3-.4-.6a3 3 0 0 1-.2-.9c0-.5.1-1 .3-1.2zm3-.2a2 2 0 0 0-.8-.8L-1-4.1c-.5 0-1 0-1.3.3A2 2 0 0 0-3-3a3 3 0 0 0-.2 1.4l.1 1c.1.4.3.7.5.9l.7.5 1 .1.9-.1A2 2 0 0 0 1.2-.5l.2-1.1c0-.5-.1-1-.3-1.4z"/><path id="_R_G_L_4_G_D_4_P_0" d="m-7-4-.5.7h-.1c-.2-.3-.3-.5-.6-.6A2.1 2.1 0 0 0-9.7-4l-.5.2-.3.4-.2-.6h-.8V.8h1v-2.4l.1-1c0-.2.2-.4.4-.5l.6-.2.5.1c.2.1.3.3.3.4l.1.6v3h1v-2.5c0-.5.1-1 .3-1.2.2-.2.5-.4.9-.4.3 0 .5.1.7.3l.2.8v3h1v-3.1c0-.7-.1-1.1-.4-1.4C-5.1-4-5.5-4-6-4c-.3 0-.6 0-1 .2z"/><path id="_R_G_L_4_G_D_5_P_0" d="M-14-1c0 .3-.1.6-.4.8-.2.2-.5.3-.8.3l-.6-.1c-.2-.1-.2-.3-.2-.6 0-.2 0-.4.3-.6.2-.2.5-.2 1-.3h.7v.4zm-1.8-3c-.3 0-.6.2-.8.3l.3.7.7-.2.7-.1c.3 0 .5 0 .7.2l.2.7v.3h-.8c-.8 0-1.4.2-1.7.4-.4.3-.6.6-.6 1.1 0 .4 0 .7.2.9l.5.5.8.1h.7l.5-.3.5-.4.2.6h.7v-3.2c0-.6-.1-1-.5-1.3-.3-.3-.7-.4-1.3-.4l-1 .1z"/></g></g><g id="_R_G_L_3_G" transform="translate(923 145.9)" fill="#b9babc" fill-opacity="1" fill-rule="nonzero"><path id="_R_G_L_3_G_D_0_P_0" d="M20.6-4a1.6 1.6 0 0 0-1 .6l-.1-.6h-.8V.8h1v-2.4c0-.5.1-1 .3-1.2.2-.3.5-.5 1-.5.3 0 .5.1.7.3.2.2.2.5.2.9v3h1v-3.2c0-.7-.1-1.1-.4-1.4-.3-.3-.7-.4-1.3-.4a2 2 0 0 0-.6 0z"/><path id="_R_G_L_3_G_D_1_P_0" d="M14.3-2.8c.2-.3.5-.5.9-.5l.7.2.4.6.1.9-.1 1c0 .2-.2.3-.4.5l-.7.2c-.3 0-.5 0-.7-.2-.2-.1-.3-.3-.4-.6a3 3 0 0 1-.1-.9c0-.5 0-1 .3-1.2zm2.9-.2a2 2 0 0 0-.8-.8c-.3-.2-.7-.3-1.2-.3s-.9 0-1.2.3a2 2 0 0 0-.8.8 3 3 0 0 0-.3 1.4c0 .4 0 .8.2 1 0 .4.2.7.4.9l.8.5.9.1 1-.1.7-.5.4-.8.2-1.1c0-.5-.1-1-.3-1.4z"/><path id="_R_G_L_3_G_D_2_P_0" d="m10.8-5.8-.2.5c0 .2 0 .3.2.4l.4.2.4-.2.2-.4c0-.2 0-.4-.2-.5a.6.6 0 0 0-.4 0h-.4zM10.7-4V.8h1V-4h-1z"/><path id="_R_G_L_3_G_D_3_P_0" d="m9.4-1.2-.5-.5-.8-.3-.6-.3a1 1 0 0 1-.4-.3v-.3l.1-.3.6-.1h.7l.7.3.3-.8-.8-.2-.8-.1c-.6 0-1 .1-1.4.3a1 1 0 0 0-.5 1c0 .3 0 .5.2.7 0 .2.2.3.4.4l.8.4.7.3.4.3v.2c0 .2 0 .4-.2.5l-.7.1A4.7 4.7 0 0 1 6-.3v1a3.2 3.2 0 0 0 1.6.2l1-.1c.3-.2.6-.3.7-.5.2-.3.3-.5.3-.9 0-.2 0-.5-.2-.6z"/><path id="_R_G_L_3_G_D_4_P_0" d="m4.3-4-.5.4-.4.4-.2-.8h-.8V.8h1v-2.5c0-.2 0-.5.2-.6a1.2 1.2 0 0 1 .7-.8h.5a2 2 0 0 1 .5 0l.1-1h-.5l-.6.1z"/><path id="_R_G_L_3_G_D_5_P_0" d="m-.2-3.2.3.5.1.6H-2c0-.4.2-.7.4-1l.8-.2.6.1zM-2-3.8a2 2 0 0 0-.8.8C-3-2.6-3-2-3-1.6c0 .6.1 1 .4 1.4.2.4.4.7.8.9l1.2.2h1L1 .6v-.8L.2 0l-.8.1c-.4 0-.8-.1-1-.4-.3-.2-.4-.6-.4-1h3.3V-2c0-.5-.1-.9-.3-1.2l-.7-.8L-.8-4c-.5 0-.9 0-1.2.3z"/><path id="_R_G_L_3_G_D_6_P_0" d="M-5.4.8-3.5-4h-1.1l-1 2.8A5 5 0 0 0-5.9 0L-6-.6a7 7 0 0 0-.2-.6l-1-2.8h-1.1L-6.5.8h1.1z"/><path id="_R_G_L_3_G_D_7_P_0" d="M-11.4-4a1.6 1.6 0 0 0-.9.6l-.2-.6h-.8V.8h1v-2.4c0-.5.1-1 .3-1.2.2-.3.5-.5 1-.5.3 0 .6.1.7.3.2.2.2.5.2.9v3h1v-3.2c0-.7 0-1.1-.4-1.4-.3-.3-.7-.4-1.3-.4a2 2 0 0 0-.6 0z"/><path id="_R_G_L_3_G_D_8_P_0" d="M-17.7-2.8c.2-.3.5-.5 1-.5l.6.2.4.6.1.9v1l-.5.5-.7.2c-.3 0-.5 0-.7-.2-.2-.1-.3-.3-.4-.6a3 3 0 0 1-.1-.9c0-.5 0-1 .3-1.2zm3-.2a2 2 0 0 0-.9-.8c-.3-.2-.7-.3-1.2-.3-.4 0-.8 0-1.2.3a2 2 0 0 0-.8.8c-.2.4-.3.9-.3 1.4 0 .4 0 .8.2 1 .1.4.3.7.5.9a2.2 2.2 0 0 0 1.6.6l1-.1.7-.5.5-.8.1-1.1c0-.5 0-1-.3-1.4z"/><path id="_R_G_L_3_G_D_9_P_0" d="M-20.5.8c.2 0 .4 0 .6-.2v-.9l-.6.3h-.7L-22 0c-.2-.1-.4-.3-.4-.6l-.2-.9c0-.3 0-.6.2-.9 0-.3.2-.4.4-.6l.7-.2.5.1.6.2.3-.8a3 3 0 0 0-1.4-.3c-.5 0-.9 0-1.2.2a2 2 0 0 0-.9.9 3 3 0 0 0-.3 1.4c0 .6.1 1 .3 1.4.2.4.5.7.8.9l1.2.2h.8z"/></g><g id="_R_G_L_2_G" transform="translate(112 509.5)" fill="#305371" fill-opacity="1" fill-rule="nonzero"><path id="_R_G_L_2_G_D_0_P_0" d="M47.6-4.9a1.6 1.6 0 0 0-1 .7l-.3-.7h-1.1V.6h1.5V-2c0-.5 0-1 .2-1.3.2-.3.5-.5 1-.5.3 0 .5.1.6.3.2.2.2.5.2 1V.5h1.5V-3c0-.7-.2-1.2-.5-1.5a2 2 0 0 0-1.4-.5l-.7.1z"/><path id="_R_G_L_2_G_D_1_P_0" d="M40.4-3.4c.2-.2.5-.4.9-.4l.7.2.3.6.1.9v.9l-.4.5a1 1 0 0 1-.7.2 1 1 0 0 1-.6-.2 1 1 0 0 1-.4-.5 3 3 0 0 1-.1-1c0-.5 0-.9.2-1.1zm3.2-.3c-.2-.4-.5-.7-1-1-.3-.1-.8-.3-1.3-.3s-1 .2-1.4.4c-.4.2-.7.5-1 1l-.2 1.5.1 1.2A2.4 2.4 0 0 0 41.4.7c.4 0 .8 0 1.1-.2a2.2 2.2 0 0 0 1.4-1.4l.2-1.2c0-.6-.2-1.2-.4-1.6z"/><path id="_R_G_L_2_G_D_2_P_0" d="M37.6-1.8c0-.2-.3-.4-.5-.5l-.8-.4a14.4 14.4 0 0 1-1-.6l-.1-.2.1-.3h1.3l.7.3.5-1-1-.4h-1c-.6 0-1.1 0-1.5.3-.4.3-.6.7-.6 1.2l.1.7.5.6c.3 0 .5.2.9.4l.8.3.3.3v.2l-.1.4-.7.1a4 4 0 0 1-.9-.1l-.9-.3V.3a4.2 4.2 0 0 0 1.8.3c.5 0 1 0 1.3-.2.3-.1.6-.3.8-.6l.2-1c0-.2 0-.5-.2-.7z"/><path id="_R_G_L_2_G_D_3_P_0" d="M31-3.4c.2.3.3.7.3 1.2l-.1 1-.4.5-.5.2a1 1 0 0 1-.7-.2 1 1 0 0 1-.3-.6l-.1-.8v-1l.4-.5.6-.2c.4 0 .7.2.8.4zm-1-1.4-.5.2-.3.4-.3-.7h-1.2V3h1.5V.4L29 0l.4.3.5.3.7.1a2 2 0 0 0 1-.3c.4-.2.6-.6.8-1 .2-.4.3-1 .3-1.5 0-1-.2-1.7-.6-2.1-.4-.5-.9-.8-1.5-.8-.2 0-.5 0-.7.2z"/><path id="_R_G_L_2_G_D_4_P_0" d="m23.4-4.8-.7.6h-.2l-.6-.6-1-.2-.6.1-.6.3-.4.4-.3-.7H18V.6h1.5V-3l.4-.6.6-.2c.2 0 .4 0 .5.2l.3.4V.6h1.6v-2.7c0-.6 0-1 .2-1.3.2-.2.4-.4.9-.4l.6.3.2 1V.5h1.5V-3c0-.7-.2-1.2-.5-1.5-.3-.3-.8-.5-1.4-.5l-1 .2z"/><path id="_R_G_L_2_G_D_5_P_0" d="M15-6.8c-.2 0-.2.3-.2.5 0 .3 0 .5.2.6l.6.2c.2 0 .4 0 .5-.2.2-.1.3-.3.3-.6s-.1-.4-.3-.5a1 1 0 0 0-.5-.2 1 1 0 0 0-.6.2zm-.2 2V.5h1.5v-5.5h-1.5z"/><path id="_R_G_L_2_G_D_6_P_0" d="M13.4-2.3a2 2 0 0 0-.6-.7c-.2-.2-.5-.4-.9-.5a12.7 12.7 0 0 1-1.2-.7.6.6 0 0 1-.1-.5V-5c.1-.2.2-.2.4-.3H12.2l1 .3.4-1.1-1-.4a4.1 4.1 0 0 0-2.4.1 2 2 0 0 0-1.1 1.8l.1.8.5.6.5.4.6.3.7.4c.2 0 .4.2.5.3l.2.5-.1.4-.4.3h-.6l-1-.1A12 12 0 0 1 9-1.1V.3a5 5 0 0 0 1.3.4h.7c.6 0 1 0 1.4-.3.4-.1.7-.4 1-.7l.2-1c0-.5 0-.8-.2-1z"/><path id="_R_G_L_2_G_D_7_P_0" d="M3.7-1.5c0 .4-.1.6-.3.8-.3.2-.5.3-.8.3A1 1 0 0 1 2-.5L1.8-1c0-.3.1-.5.3-.6.2-.2.5-.3 1-.3h.6v.4zm-2-3.3-.9.3.5 1c.3 0 .5-.2.8-.3h.8l.6.1.2.7v.2h-1c-.8 0-1.4.2-1.8.5C.5-2 .3-1.6.3-1c0 .4 0 .7.2 1l.6.5.9.2h.8l.5-.4c.2 0 .4-.3.5-.4l.3.7h1V-3c0-.7-.1-1.2-.5-1.5-.4-.3-1-.5-1.7-.5-.4 0-.8 0-1.1.2z"/><path id="_R_G_L_2_G_D_8_P_0" d="M-5.9-7V.6h1.5V-2l.1-1c0-.2.2-.4.4-.6l.7-.2c.3 0 .5.1.6.3.2.2.3.5.3 1V.5H-1V-3c0-.4 0-.8-.2-1.1l-.7-.7-1-.2-.7.1-.5.3-.4.4V-7H-6z"/><path id="_R_G_L_2_G_D_9_P_0" d="m-8.4-.6-.2-.5v-2.6H-7V-5h-1.5V-6h-1L-10-5l-.8.5v.7h.7v2.6l.2 1c.2.3.4.5.7.6.2.2.5.2.8.2h.8l.6-.2V-.8a3.9 3.9 0 0 1-1 .2l-.4-.1z"/><path id="_R_G_L_2_G_D_10_P_0" d="M-14.4-4.9c-.2 0-.4.2-.5.3l-.5.4-.3-.7h-1.1V.6h1.5V-2c0-.5 0-1 .2-1.3.2-.3.5-.5 1-.5.3 0 .5.1.6.3.2.2.2.5.2 1V.5h1.5V-3c0-.7-.1-1.2-.5-1.5a2 2 0 0 0-1.4-.5l-.7.1z"/><path id="_R_G_L_2_G_D_11_P_0" d="M-19.8-1.5c0 .4-.1.6-.3.8-.3.2-.5.3-.9.3l-.5-.1-.2-.5c0-.3.1-.5.3-.6.2-.2.5-.3 1-.3h.6v.4zm-2-3.3-.9.3.5 1 .8-.3h.7l.6.1c.2.2.3.4.3.7v.2h-1c-.8 0-1.4.2-1.8.5-.4.3-.6.7-.6 1.3 0 .4 0 .7.2 1l.6.5.9.2h.8l.5-.4c.2 0 .3-.3.5-.4l.3.7h1V-3c0-.7-.1-1.2-.5-1.5-.4-.3-1-.5-1.7-.5-.4 0-.8 0-1.1.2z"/><path id="_R_G_L_2_G_D_12_P_0" d="m-27.2-4.8-.7.6h-.1l-.6-.6-1-.2-.7.1c-.2 0-.4.2-.5.3l-.4.4h-.1l-.2-.7h-1.2V.6h1.5V-2l.1-1c0-.2.2-.4.4-.6l.6-.2c.2 0 .4 0 .5.2l.2.4.1.6V.6h1.5v-2.7c0-.6.1-1 .3-1.3.1-.2.4-.4.8-.4.3 0 .5.1.6.3.2.2.2.5.2 1V.5h1.5V-3c0-.7-.1-1.2-.5-1.5-.3-.3-.7-.5-1.4-.5l-.9.2z"/><path id="_R_G_L_2_G_D_13_P_0" d="M-35.7-1.5c0 .4 0 .6-.3.8-.2.2-.5.3-.8.3l-.5-.1c-.2-.1-.2-.3-.2-.5 0-.3 0-.5.2-.6.2-.2.6-.3 1-.3h.6v.4zm-1.9-3.3c-.4 0-.7.2-1 .3l.5 1c.3 0 .5-.2.8-.3h.8l.6.1.2.7v.2h-1c-.7 0-1.4.2-1.8.5-.4.3-.6.7-.6 1.3 0 .4.1.7.3 1 0 .2.3.4.5.5l1 .2h.7l.6-.4.4-.4.4.7h1V-3c0-.7-.2-1.2-.6-1.5-.4-.3-1-.5-1.7-.5-.4 0-.7 0-1 .2z"/><path id="_R_G_L_2_G_D_14_P_0" d="M-40.1-2.3a2 2 0 0 0-.6-.7l-1-.5a12.7 12.7 0 0 1-1.1-.7.6.6 0 0 1-.2-.5l.1-.3c0-.2.2-.2.3-.3h1.3l.9.3.5-1.1-1-.4a4.1 4.1 0 0 0-2.4.1c-.4.2-.7.4-.9.7a2 2 0 0 0-.3 1l.2 1 .4.5.6.4.5.3.8.4c.2 0 .3.2.5.3l.1.5v.4l-.4.3h-.6l-1-.1a12 12 0 0 1-1.1-.4V.3a5 5 0 0 0 1.3.4h.7c.5 0 1 0 1.4-.3.4-.1.7-.4 1-.7l.2-1c0-.5 0-.8-.2-1z"/></g><g id="_R_G_L_1_G" transform="translate(49.5 507.5)"><path id="_R_G_L_1_G_D_0_P_0" fill="#f1b35f" fill-opacity="1" fill-rule="nonzero" d="M0-9.5a9.5 9.5 0 1 1 0 19 9.5 9.5 0 0 1 0-19z"/></g><g id="_R_G_L_0_G" transform="translate(49.5 507.5)"><path id="_R_G_L_0_G_D_0_P_0" fill="#fff" fill-opacity="1" fill-rule="nonzero" d="M-2-1.8c0 1 .9 2 2 2a2 2 0 0 0 2-2c0-1-.9-2-2-2a2 2 0 0 0-2 2zm4.8 0c0 1-.5 1.8-1.2 2.3 1.7.6 2.9 2.1 2.9 4h-.8C3.8 2.5 2.1.9 0 .9c-2 0-3.8 1.6-3.8 3.6h-.7c0-1.9 1.2-3.4 3-4a2.7 2.7 0 0 1-1.3-2.3c0-1.5 1.2-2.7 2.8-2.7 1.6 0 2.8 1.2 2.8 2.7z"/></g></g></svg>