<svg xmlns="http://www.w3.org/2000/svg" viewBox="0 0 176.6 230.34"><defs><style>.cls-1{fill:#1fc1e5}</style></defs><g id="Слой_2" data-name="Слой 2"><g id="Слой_1-2" data-name="Слой 1"><path class="cls-1" d="M48.3 208.05h-26a3.72 3.72 0 000 7.43h26a3.72 3.72 0 000-7.43zM63.16 208.05h-3.72a3.72 3.72 0 000 7.43h3.72a3.72 3.72 0 000-7.43z"/><path class="cls-1" d="M130.09 145a13.29 13.29 0 01-3.78-.4v67.15a11.16 11.16 0 01-11.14 11.15H18.58a11.17 11.17 0 01-11.15-11.14V18.58A11.16 11.16 0 0118.58 7.43H34.1L37.23 23a3.71 3.71 0 003.64 3h52a3.71 3.71 0 003.64-3l3.13-15.57h15.53a11.15 11.15 0 0111.14 11.15v66.36a17.59 17.59 0 015-1 13.17 13.17 0 012.44.14v-65.5A18.59 18.59 0 00115.17 0H18.58A18.59 18.59 0 000 18.58v193.18a18.59 18.59 0 0018.58 18.58h96.59a18.59 18.59 0 0018.57-18.58v-67.3a18.16 18.16 0 01-3.65.54zM92.06 7.43l-2.23 11.15H43.91L41.68 7.43z"/><path class="cls-1" d="M166.67 148.25H93.89a9.93 9.93 0 01-9.89-9.93V92a9.93 9.93 0 019.92-9.92h72.78a9.93 9.93 0 019.89 9.92v46.31a9.93 9.93 0 01-9.92 9.94zM93.89 88.71A3.31 3.31 0 0090.58 92v46.31a3.31 3.31 0 003.31 3.31h72.78a3.31 3.31 0 003.3-3.31V92a3.3 3.3 0 00-3.3-3.3z"/><path class="cls-1" d="M130.28 122.82a13.29 13.29 0 01-6.13-1.51l-38.4-20a3.31 3.31 0 013.06-5.87l38.41 20a6.64 6.64 0 006.13 0l38.41-20a3.31 3.31 0 113.06 5.87l-38.41 20a13.29 13.29 0 01-6.13 1.51z"/></g></g></svg>