<svg xmlns="http://www.w3.org/2000/svg" viewBox="0 0 233.4 233.4"><defs><style>.cls-1{fill:#1fc1e5}</style></defs><g id="Слой_2" data-name="Слой 2"><g id="Слой_1-2" data-name="Слой 1"><path class="cls-1" d="M120.6 16.85a4.13 4.13 0 00-3.84-2.58 4.16 4.16 0 00-3.84 2.59v.07l-12.17 32a3.41 3.41 0 002 4.41 3.25 3.25 0 001.21.23 3.42 3.42 0 003.2-2.21l2.19-5.75h14.84l2.17 5.75a3.42 3.42 0 106.4-2.42l-12.06-32a.36.36 0 010-.09zm-8.7 21.88L116.75 26l4.8 12.73zM106.81 97.07a3.42 3.42 0 00-3.42 3.42v32.42a3.43 3.43 0 003.42 3.42h11.05a12.14 12.14 0 007.14-21.99 10.87 10.87 0 00-8.8-17.27zm11.06 32.38h-7.64v-10.6h7.64a5.31 5.31 0 110 10.61zm2.39-21.5a4 4 0 01-4 4h-6v-8.09h6a4 4 0 014 4.14zM119.7 186.71a12.78 12.78 0 017.15 2.18 3.42 3.42 0 103.83-5.66 19.63 19.63 0 10-11 35.9 16.49 16.49 0 0011.17-4.08 15.89 15.89 0 001.66-1.72 3.42 3.42 0 00-5.24-4.39 9.19 9.19 0 01-1 1 9.63 9.63 0 01-6.62 2.35 12.79 12.79 0 010-25.58z"/><path class="cls-1" d="M220.27 43.61a44.5 44.5 0 00-31.69-13.13h-26.09V18.06A18.08 18.08 0 00144.43 0h-8.1a3.42 3.42 0 000 6.84h8.1a11.23 11.23 0 0111.22 11.22v31.68A11.23 11.23 0 01144.43 61H89a11.23 11.23 0 01-11.24-11.26V18.06A11.23 11.23 0 0189 6.84h33.68a3.42 3.42 0 100-6.84H89a18.08 18.08 0 00-18.08 18.06v31.68A18.08 18.08 0 0089 67.8h24.3v15H89a18.08 18.08 0 00-18 18.06v12.42H44.82a44.82 44.82 0 000 89.64h11.33l-5.87 5.87a3.42 3.42 0 004.84 4.84l11.7-11.71a3.42 3.42 0 000-4.83l-11.7-11.71a3.42 3.42 0 00-4.84 4.84l5.87 5.86H44.82a38 38 0 110-76h26.1v12.42A18.08 18.08 0 0089 150.6h24.31v15H89a18 18 0 00-16.09 9.84 3.42 3.42 0 106.09 3.12 11.19 11.19 0 0110-6.12h55.45a11.23 11.23 0 0111.22 11.22v31.69a11.23 11.23 0 01-11.22 11.21H89a11.23 11.23 0 01-11.22-11.21V190.5a3.42 3.42 0 00-6.84 0v24.85A18.08 18.08 0 0089 233.4h55.45a18.08 18.08 0 0018.06-18.05v-31.69a18.07 18.07 0 00-18.06-18h-24.33v-15h24.31a18.08 18.08 0 0018.06-18.06v-31.74a18.08 18.08 0 00-18.06-18.06h-24.31v-15h24.31a18.08 18.08 0 0018.06-18.06V37.32h26.09a38 38 0 010 76h-11.33l5.87-5.87a3.42 3.42 0 00-4.84-4.83l-11.7 11.7a3.43 3.43 0 000 4.84l11.7 11.7a3.42 3.42 0 004.84-4.83l-5.87-5.87h11.33a44.82 44.82 0 0031.69-76.51zm-64.62 57.25v31.68a11.23 11.23 0 01-11.22 11.22H89a11.23 11.23 0 01-11.21-11.22v-31.68A11.23 11.23 0 0189 89.64h55.46a11.23 11.23 0 0111.22 11.22z"/></g></g></svg>