<svg xmlns="http://www.w3.org/2000/svg" viewBox="0 0 165.36 230.7"><defs><style>.cls-1{fill:#1fc1e5}</style></defs><g id="Слой_2" data-name="Слой 2"><g id="Слой_1-2" data-name="Слой 1"><path class="cls-1" d="M148.47 16.67h-33.12V7.89A7.9 7.9 0 00107.46 0H57.9A7.9 7.9 0 0050 7.89v8.78H16.9A16.92 16.92 0 000 33.57V213.8a16.92 16.92 0 0016.9 16.9h131.57a16.92 16.92 0 0016.89-16.9V33.57a16.92 16.92 0 00-16.89-16.9zm-91.7-8.78a1.13 1.13 0 011.13-1.13h49.56a1.13 1.13 0 011.13 1.13v18.92a1.14 1.14 0 01-1.13 1.13H57.9a1.14 1.14 0 01-1.13-1.13zM158.6 213.8a10.14 10.14 0 01-10.13 10.14H16.9A10.15 10.15 0 016.76 213.8V33.57A10.15 10.15 0 0116.9 23.43H50v3.38a7.89 7.89 0 007.89 7.88h49.56a7.89 7.89 0 007.89-7.88v-3.38h33.12a10.14 10.14 0 0110.14 10.14V213.8z"/><path class="cls-1" d="M96.2 48.89h-27a3.38 3.38 0 00-3.38 3.38v13.1H42.13a3.38 3.38 0 00-3.38 3.38v36.91h-4.28a3.38 3.38 0 100 6.76h96.42a3.38 3.38 0 100-6.76h-4.28v-21a3.38 3.38 0 00-3.38-3.38H99.58v-29a3.38 3.38 0 00-3.38-3.39zM45.51 72.13h20.27v33.53H45.51zm27-16.48h20.31v50H72.54zM119.85 88v17.65H99.58V88zM30.41 152.3a5.2 5.2 0 005.19 5.18H59a5.19 5.19 0 005.18-5.18v-23.43a5.2 5.2 0 00-5.18-5.19H35.6a5.2 5.2 0 00-5.19 5.19zm6.76-21.86h20.28v20.28H37.17zM131.57 129.09H77.5a3.38 3.38 0 000 6.76h54.07a3.38 3.38 0 000-6.76zM131.57 143.51H77.5a3.38 3.38 0 100 6.76h54.07a3.38 3.38 0 000-6.76zM64.21 196v-23.43a5.19 5.19 0 00-5.21-5.18H35.6a5.19 5.19 0 00-5.19 5.18V196a5.19 5.19 0 005.19 5.18H59a5.19 5.19 0 005.21-5.18zm-6.76-1.57H37.17v-20.28h20.28zM131.57 172.8H77.5a3.38 3.38 0 000 6.76h54.07a3.38 3.38 0 000-6.76zM131.57 187.22H77.5a3.38 3.38 0 100 6.75h54.07a3.38 3.38 0 100-6.75z"/></g></g></svg>