<svg xmlns="http://www.w3.org/2000/svg" viewBox="0 0 244.99 232.34"><defs><style>.cls-1{fill:#1fc1e5}</style></defs><g id="Слой_2" data-name="Слой 2"><g id="Слой_1-2" data-name="Слой 1"><path class="cls-1" d="M228.37 187.14H16.61C7.44 187.13 0 178.92 0 168.78V18.37C0 8.23 7.44 0 16.61 0h211.76C237.54 0 245 8.23 245 18.37v150.41c0 10.14-7.46 18.35-16.63 18.36zM16.61 7.74C11.31 7.75 7 12.5 7 18.37v150.41c0 5.86 4.31 10.62 9.61 10.62h211.76c5.31 0 9.61-4.76 9.62-10.62V18.37c0-5.87-4.31-10.62-9.62-10.63z"/><path class="cls-1" d="M135.65 210.65h-26.32c-2.13 0-3.87-.76-3.87-1.7v-27.13c0-.94 1.74-1.69 3.87-1.69h26.32c2.14 0 3.87.75 3.87 1.69V209c0 .89-1.73 1.65-3.87 1.65zm-22.44-3.39h18.57v-23.75h-18.57z"/><path class="cls-1" d="M171.5 232.34h-98a3.87 3.87 0 01-3.87-3.87 25.6 25.6 0 0125.57-25.55h54.6a25.61 25.61 0 0125.57 25.55 3.87 3.87 0 01-3.87 3.87zm-93.71-7.74h89.4a17.86 17.86 0 00-17.41-13.94H95.19a17.86 17.86 0 00-17.4 13.94zM31.58 116.7a5.83 5.83 0 01-3.09-10.77l60.6-37.88a5.85 5.85 0 015.48-.36l31.62 14.22 80.93-52.66a5.83 5.83 0 116.36 9.75l-83.62 54.4a5.82 5.82 0 01-5.57.43L92.62 79.58l-58 36.24a5.77 5.77 0 01-3.08.88z"/><path class="cls-1" d="M200.64 69.14a5.66 5.66 0 01-1.83-.3 5.82 5.82 0 01-3.7-7.36l7.36-22.26-23.39-2.36a5.82 5.82 0 111.16-11.59l30.62 3.08a5.83 5.83 0 015.22 6.38 6.8 6.8 0 01-.27 1.25l-9.64 29.13a5.82 5.82 0 01-5.53 4zM56.46 162.32a5.83 5.83 0 01-5.82-5.82v-37.88a5.83 5.83 0 1111.65 0v37.88a5.83 5.83 0 01-5.83 5.82zM99.44 162.32a5.83 5.83 0 01-5.83-5.82v-53.42a5.83 5.83 0 1111.66 0v53.42a5.83 5.83 0 01-5.83 5.82zM142.42 162.32a5.83 5.83 0 01-5.83-5.82V106a5.83 5.83 0 1111.65 0v50.5a5.83 5.83 0 01-5.82 5.82zM185.39 162.32a5.83 5.83 0 01-5.83-5.82V83.65a5.83 5.83 0 0111.66 0v72.85a5.83 5.83 0 01-5.83 5.82z"/></g></g></svg>