<svg xmlns="http://www.w3.org/2000/svg" viewBox="0 0 230.33 230.33"><defs><style>.cls-1{fill:#1fc1e5}</style></defs><g id="Слой_2" data-name="Слой 2"><g id="Слой_1-2" data-name="Слой 1"><path class="cls-1" d="M0 0v200.61h65.92a55.67 55.67 0 0098.5 0h65.91V0zm91.16 147.62a66.48 66.48 0 00-5.54 23.27H67.06a48.08 48.08 0 0113.31-29.68 44.72 44.72 0 0010.79 6.41zM86 136.19a48 48 0 0118.27-8.6 75.54 75.54 0 00-9.77 13.35 39.67 39.67 0 01-8.5-4.75zm-19 42.13h18.62a66.48 66.48 0 005.54 23.28 44.6 44.6 0 00-10.79 6.4 48.08 48.08 0 01-13.31-29.68zM86 213a40.45 40.45 0 018.51-4.76 75.65 75.65 0 009.77 13.36A48.06 48.06 0 0186 213zm25.43 5.3a70 70 0 01-9.63-12.44 54.74 54.74 0 019.63-1.45zm0-40V197a62.06 62.06 0 00-13.21 2.13 59.13 59.13 0 01-5.19-20.82zm0-7.43H93.05a59.24 59.24 0 015.22-20.81 61.07 61.07 0 0013.18 2.12zm0-26.12a55.56 55.56 0 01-9.6-1.43 70.62 70.62 0 019.6-12.43zm24.35-3.83a75.53 75.53 0 00-9.78-13.33 48.09 48.09 0 0118.27 8.6 39.8 39.8 0 01-8.47 4.75zm14.16.27a48.08 48.08 0 0113.31 29.68h-18.54a66.26 66.26 0 00-5.54-23.27 44.72 44.72 0 0010.83-6.39zm-21.45 2.12a54.64 54.64 0 01-9.63 1.44v-13.87a70 70 0 019.65 12.45zm3.58 6.75a59.13 59.13 0 015.19 20.81h-18.4V152.2a61.88 61.88 0 0013.23-2.12zm5.19 28.24a59 59 0 01-5.21 20.81 61.79 61.79 0 00-13.17-2.11v-18.68zm-8.8 27.55a69.78 69.78 0 01-9.6 12.43v-13.84a55.41 55.41 0 019.62 1.43zM126 221.63a74.66 74.66 0 009.77-13.36 40 40 0 018.51 4.76 48.06 48.06 0 01-18.28 8.6zM150 208a44.6 44.6 0 00-10.79-6.41 66.48 66.48 0 005.54-23.28h18.56A48.13 48.13 0 01150 208zm72.93-14.83h-55.29a55.4 55.4 0 00-24.79-66.87h20.61v-7.43H44.58a11.16 11.16 0 01-11.14-11.14V78a11.16 11.16 0 0111.14-11.13h141.17A11.16 11.16 0 01196.9 78v29.72a11.16 11.16 0 01-11.15 11.14h-14.86v7.43h14.86a18.59 18.59 0 0018.58-18.57V78a18.59 18.59 0 00-18.58-18.58H44.58A18.59 18.59 0 0026 78v29.72a18.59 18.59 0 0018.57 18.57h42.9a55.4 55.4 0 00-24.79 66.87H7.43v-156H222.9zm0-163.46H7.43V7.43H222.9z"/><path class="cls-1" d="M78.05 77.56l-2.63 20.99-12.26-15.34-12.27 15.34-2.62-20.99-7.37.92 4.8 38.45 17.46-21.82 17.45 21.82 4.81-38.45-7.37-.92zM130.06 77.56l-2.63 20.99-12.26-15.34-12.27 15.34-2.62-20.99-7.37.92 4.8 38.45 17.46-21.82 17.45 21.82 4.81-38.45-7.37-.92zM182.07 77.56l-2.63 20.99-12.26-15.34-12.27 15.34-2.62-20.99-7.37.92 4.8 38.45 17.46-21.82 17.45 21.82 4.81-38.45-7.37-.92z"/></g></g></svg>