<svg xmlns="http://www.w3.org/2000/svg" viewBox="0 0 233.5 233.5"><defs><style>.cls-1{fill:#1fc1e5}</style></defs><g id="Слой_2" data-name="Слой 2"><g id="Слой_1-2" data-name="Слой 1"><path class="cls-1" d="M116.75 60.26c31.26 0 90.39-4.72 90.39-22.6s-59.14-22.6-90.39-22.6-90.39 4.73-90.39 22.6 59.13 22.6 90.39 22.6zm0-37.66c53.61 0 82.85 9.95 82.85 15.06s-29.24 15.07-82.85 15.07S33.9 42.77 33.9 37.66 63.14 22.6 116.75 22.6z"/><path class="cls-1" d="M116.75 0C60.15 0 0 13.2 0 37.66v135.58c0 24.46 60.15 37.66 116.75 37.66 2.5 0 5 0 7.53-.08v13.59L111.88 212l-5.33 5.32L119 229.73a12.84 12.84 0 0018.18 0l12.4-12.4-5.36-5.33-12.41 12.4v-13.81c51.71-2.12 101.69-15.05 101.69-37.35V37.66C233.5 13.2 173.35 0 116.75 0zm0 7.53C181.11 7.53 226 23.41 226 37.66s-44.89 30.13-109.25 30.13S7.53 51.91 7.53 37.66 52.39 7.53 116.75 7.53zM7.53 96.65c8.74 7.6 24.82 14 46.69 18.26a37.51 37.51 0 00-12.79 28.2v.32A22.66 22.66 0 0033 146.8c-16-5.47-25.47-12.42-25.47-18.75zm109.22 106.72c-64.36 0-109.22-15.88-109.22-30.13V142c4.49 3.89 11 7.44 19.28 10.6a22.75 22.75 0 00-4.11 15.33c1.09 11.42 11.3 20.38 23.3 20.38h51.92a11.31 11.31 0 0011.3-11.3v-39.87l12.4 12.4 5.32-5.32-12.4-12.41a13.18 13.18 0 00-18.18 0L84 144.22l5.32 5.32 12.41-12.4V177a3.77 3.77 0 01-3.77 3.76H46c-8.13 0-15.07-6-15.8-13.57a15 15 0 013.85-11.62A15.12 15.12 0 0145 150.64h4.64l-.47-4.18a31.12 31.12 0 01-.2-3.37A30.17 30.17 0 0179.09 113a29.83 29.83 0 0113.73 3.34l3.5 1.8 1.68-3.6a41.41 41.41 0 0179 17.27v3.77h3.76a22.6 22.6 0 0122.59 23.29c-.36 12.08-11 21.9-23.69 21.9h-44.08a11.31 11.31 0 00-11.3 11.3v11.22c-2.48.05-5 .08-7.53.08zm15.06-.31v-11a3.77 3.77 0 013.77-3.76h44.09c16.73 0 30.74-13.11 31.22-29.21a30.18 30.18 0 00-.82-7.85A59.1 59.1 0 00226 142v31.27c0 13.11-38 27.58-94.16 29.82zm75.63-58.9a30.47 30.47 0 00-5-7 29.86 29.86 0 00-18-8.93 48.46 48.46 0 00-3-13.77c20.94-4.31 36.19-10.45 44.6-17.77v31.33c-.04 5.37-6.81 11.15-18.6 16.14zM178 107.48a48.87 48.87 0 00-85.19.58 37.33 37.33 0 00-29.41.85C24.85 102.62 7.53 91.33 7.53 82.85V51.68c17.85 15.44 64.63 23.64 109.22 23.64s91.37-8.2 109.25-23.64v31.17c0 7.65-14.93 18.15-48 24.63z"/><path class="cls-1" d="M181.79 76.79l1.49 7.39q3.78-.77 7.48-1.63L189 75.22q-3.54.84-7.21 1.57zM210.15 68.84l2.72 7c2.52-1 4.93-2 7.17-3.06L216.83 66c-2.08 1-4.33 1.93-6.68 2.84zM196.19 73.4l2 7.26q3.78-1 7.38-2.2l-2.33-7.17c-2.29.74-4.64 1.45-7.05 2.11zM127.11 99a33.85 33.85 0 00-8 3.17l3.65 6.58a26.32 26.32 0 016.18-2.46zM161.94 131.81a27.63 27.63 0 01-.2 3.31l7.47.92a33.49 33.49 0 00.27-4.23 33.94 33.94 0 00-33.9-33.89v7.53a26.4 26.4 0 0126.36 26.36zM173.24 165.71h7.53v7.53h-7.53zM158.18 165.71h7.53v7.53h-7.53zM143.11 165.71h7.53v7.53h-7.53z"/></g></g></svg>