<svg xmlns="http://www.w3.org/2000/svg" viewBox="0 0 254.85 230.23"><defs><style>.cls-1{fill:#1fc1e5}</style></defs><g id="Слой_2" data-name="Слой 2"><g id="Слой_1-2" data-name="Слой 1"><path class="cls-1" d="M246.12 0H8.73A8.73 8.73 0 000 8.73v161.11a8.73 8.73 0 008.73 8.72h49.06l1 4.69a12.52 12.52 0 0010 9.65 25.14 25.14 0 1044.05.2h20.87a25.14 25.14 0 1044.12-.08 12.53 12.53 0 0010.93-9.77L216 56.84h31.42v113a1.25 1.25 0 01-1.25 1.24h-40.79a3.74 3.74 0 000 7.48h40.74a8.74 8.74 0 008.73-8.72V8.73A8.74 8.74 0 00246.12 0zM90.79 222.76a17.66 17.66 0 1117.66-17.66 17.68 17.68 0 01-17.66 17.66zm65 0a17.66 17.66 0 1117.66-17.66 17.68 17.68 0 01-17.66 17.66zm80.91-173.4a12.45 12.45 0 00-8.38-21.68h-11.73a24.72 24.72 0 00-24.05 19.43l-.49 2.25h-35.31a3.74 3.74 0 000 7.48h33.71l-3.8 17.67H50.86a12.46 12.46 0 00-12.18 15.08l9.22 42.91a3.74 3.74 0 107.31-1.57L46 88a5 5 0 014.87-6h138.8a3.75 3.75 0 003.66-3l6.52-30.35a17.2 17.2 0 0116.74-13.52h11.76a5 5 0 110 10h-11.76a7.18 7.18 0 00-7 5.65l-28.13 130.9a5 5 0 01-4.87 3.94h-4.92a25.09 25.09 0 00-31.72 0h-33.3a25.09 25.09 0 00-31.72 0H71a5 5 0 01-4.88-3.94L58.44 146a3.74 3.74 0 10-7.31 1.57l5.06 23.55H8.73a1.25 1.25 0 01-1.25-1.24v-113h132a3.74 3.74 0 100-7.48h-132V8.73a1.25 1.25 0 011.25-1.25h237.39a1.25 1.25 0 011.25 1.25v40.63z"/><circle class="cls-1" cx="27.64" cy="28.28" r="7.29"/><circle class="cls-1" cx="49.82" cy="28.28" r="7.29"/><circle class="cls-1" cx="71.99" cy="28.28" r="7.29"/><path class="cls-1" d="M134.3 154.4h-22a3.74 3.74 0 00-3.73 4l1.14 13.77a3.74 3.74 0 003.72 3.43h19.73a3.74 3.74 0 003.73-3.43l1.11-13.73a3.74 3.74 0 00-3.73-4zm-4.58 13.76h-12.83l-.52-6.28h13.87zM61 110.25a3.75 3.75 0 003.66 3h26.13a3.78 3.78 0 003.73-4l-1.14-13.86A3.74 3.74 0 0089.66 92h-28A3.75 3.75 0 0058 96.48zm25.21-10.81l.52 6.29H67.64l-1.35-6.29zM75.08 154.4a3.74 3.74 0 00-3.66 4.52l3 13.77a3.74 3.74 0 003.58 2.95h17.93a3.74 3.74 0 003.73-4l-1.14-13.77a3.73 3.73 0 00-3.72-3.43zm6 13.76l-1.35-6.28h11.62l.52 6.28zM68.37 123.18a3.74 3.74 0 00-3.66 4.52l3 13.77a3.75 3.75 0 003.66 3h22a3.75 3.75 0 003.73-4.05L96 126.61a3.74 3.74 0 00-3.72-3.43zm6 13.77L73 130.66h15.78l.52 6.34zM104.57 109.77a3.75 3.75 0 003.73 3.44h30a3.75 3.75 0 003.73-3.44L143.17 96a3.76 3.76 0 00-3.73-4h-32.27a3.76 3.76 0 00-3.73 4zm30.81-10.33l-.51 6.29h-23.12l-.52-6.29zM153.25 144.42h23a3.73 3.73 0 003.65-2.95l3-13.77a3.74 3.74 0 00-3.65-4.52h-24.87a3.74 3.74 0 00-3.72 3.43l-1.14 13.77a3.74 3.74 0 003.73 4zm4.58-13.76h16.76l-1.35 6.34h-15.93zM155.82 113.21H183a3.74 3.74 0 003.65-3l3-13.77a3.77 3.77 0 00-3.73-4.44H157a3.74 3.74 0 00-3.72 3.43l-1.14 13.77a3.78 3.78 0 003.73 4zm4.58-13.77h20.9l-1.36 6.29h-20.06zM136.87 123.18h-27.13a3.74 3.74 0 00-3.73 4l1.14 13.82a3.74 3.74 0 003.72 3.44h24.87a3.75 3.75 0 003.73-3.44l1.13-13.77a3.76 3.76 0 00-1-2.84 3.71 3.71 0 00-2.73-1.21zM132.29 137h-18l-.52-6.29h19zM150.68 175.64h18.87a3.75 3.75 0 003.66-2.95l2.95-13.77a3.73 3.73 0 00-3.65-4.52h-20.7a3.74 3.74 0 00-3.72 3.43L147 171.6a3.74 3.74 0 003.73 4zm4.58-13.76h12.62l-1.35 6.28h-11.79zM90.79 198.68a6.42 6.42 0 106.42 6.42 6.43 6.43 0 00-6.42-6.42zM155.82 198.68a6.42 6.42 0 106.42 6.42 6.43 6.43 0 00-6.42-6.42z"/></g></g></svg>