<svg xmlns="http://www.w3.org/2000/svg" viewBox="0 0 238.4 230.34"><defs><style>.cls-1{fill:#1fc1e5}</style></defs><g id="Слой_2" data-name="Слой 2"><g id="Слой_1-2" data-name="Слой 1"><path class="cls-1" d="M237.89 210.48a15.88 15.88 0 00-30.76 0h-72.61a15.87 15.87 0 00-11.35-11.35v-24.39h95.31a19.89 19.89 0 0019.86-19.86v-23.83a19.77 19.77 0 00-8.07-15.88 19.79 19.79 0 008.07-15.89V75.45a19.78 19.78 0 00-8.07-15.88 19.79 19.79 0 008.07-15.89V19.86A19.88 19.88 0 00218.48 0H19.92A19.89 19.89 0 00.06 19.86v23.82a19.79 19.79 0 008.07 15.89A19.78 19.78 0 00.06 75.45v23.83a19.79 19.79 0 008.07 15.89 19.77 19.77 0 00-8.07 15.88v23.83a19.9 19.9 0 0019.86 19.86h95.31v24.39a15.87 15.87 0 00-11.35 11.35H31.27a15.88 15.88 0 100 7.94h72.61a15.81 15.81 0 0030.64 0h72.61a15.88 15.88 0 1030.76-7.94zM16 222.39a7.94 7.94 0 117.94-7.94 7.93 7.93 0 01-7.94 7.94zM8 43.68V19.86A11.92 11.92 0 0119.92 7.94h198.56a11.92 11.92 0 0111.92 11.92v23.82a11.92 11.92 0 01-11.92 11.92H19.92A11.92 11.92 0 018 43.68zm0 55.6V75.45a11.91 11.91 0 0111.92-11.91h198.56a11.92 11.92 0 0111.92 11.91v23.83a11.92 11.92 0 01-11.92 11.92H19.92A11.92 11.92 0 018 99.28zm11.91 67.51A11.91 11.91 0 018 154.88v-23.83a11.91 11.91 0 0111.91-11.91h198.57a11.92 11.92 0 0111.92 11.91v23.83a11.92 11.92 0 01-11.92 11.91zm99.28 55.6a7.94 7.94 0 117.94-7.94 7.93 7.93 0 01-7.93 7.94zm103.25 0a7.94 7.94 0 118-7.94 7.94 7.94 0 01-7.99 7.94z"/><path class="cls-1" d="M47.72 19.86H27.86a4 4 0 00-4 4v15.85a4 4 0 004 4h19.86a4 4 0 004-4V23.83a4 4 0 00-4-3.97zm-4 15.88H31.83V27.8h11.92zM47.72 75.45H27.86a4 4 0 00-4 4v15.86a4 4 0 004 4h19.86a4 4 0 004-4V79.43a4 4 0 00-4-3.98zm-4 15.89H31.83V83.4h11.92zM47.72 131.05H27.86a4 4 0 00-4 4v15.89a4 4 0 004 4h19.86a4 4 0 004-4V135a4 4 0 00-4-3.95zm-4 15.89H31.83V139h11.92zM210.54 15.89h-39.71a4 4 0 000 7.94h39.71a4 4 0 000-7.94zM210.54 31.77h-39.71a4 4 0 100 7.94h39.71a4 4 0 000-7.94zM210.54 71.48h-39.71a4 4 0 000 8h39.71a4 4 0 000-8zM210.54 87.37h-39.71a4 4 0 000 7.94h39.71a4 4 0 000-7.94zM210.54 127.08h-39.71a4 4 0 100 7.94h39.71a4 4 0 000-7.94zM210.54 143h-39.71a4 4 0 000 7.94h39.71a4 4 0 000-7.94z"/></g></g></svg>