<svg xmlns="http://www.w3.org/2000/svg" viewBox="0 0 187.18 230.34"><defs><style>.cls-1{fill:#1fc1e5}</style></defs><g id="Слой_2" data-name="Слой 2"><g id="Слой_1-2" data-name="Слой 1"><path class="cls-1" d="M10.48 230.34H176.7a10.5 10.5 0 0010.48-10.48V10.48A10.5 10.5 0 00176.7 0H10.48A10.49 10.49 0 000 10.48v209.38a10.49 10.49 0 0010.48 10.48zm170-202V96H6.75V28.3zm-3.78 195.25H10.48a3.74 3.74 0 01-3.73-3.73v-117.1h173.68v117.1a3.74 3.74 0 01-3.73 3.73zm3.71-213.49v11.46h-152V6.75H176.7a3.74 3.74 0 013.71 3.35zm-173.66.38a3.73 3.73 0 013.73-3.73h11.25v14.81h-15z"/><path class="cls-1" d="M56.21 122.35H23.72a7.11 7.11 0 00-7.1 7.11v40.95a7.11 7.11 0 007.1 7.1h32.49a7.12 7.12 0 007.11-7.1v-40.95a7.12 7.12 0 00-7.11-7.11zm.36 48.06a.36.36 0 01-.36.35H23.72a.35.35 0 01-.35-.35v-40.95a.36.36 0 01.35-.36h32.49a.36.36 0 01.36.36zM109.83 122.35H77.34a7.12 7.12 0 00-7.1 7.11v40.95a7.11 7.11 0 007.1 7.1h32.49a7.12 7.12 0 007.11-7.1v-40.95a7.12 7.12 0 00-7.11-7.11zm.36 48.06a.36.36 0 01-.36.35H77.34a.35.35 0 01-.35-.35v-40.95a.36.36 0 01.35-.36h32.49a.36.36 0 01.36.36zM30.34 116.07h19.25a3.38 3.38 0 000-6.75H30.34a3.38 3.38 0 000 6.75zM84 116.07h19.25a3.38 3.38 0 100-6.75H84a3.38 3.38 0 000 6.75zM137.59 116.07h19.24a3.38 3.38 0 100-6.75h-19.24a3.38 3.38 0 100 6.75zM59.94 183.22H20a3.38 3.38 0 000 6.78h40a3.38 3.38 0 100-6.75zM59.94 194.83H20a3.38 3.38 0 000 6.75h40a3.38 3.38 0 100-6.75zM59.94 206.43H20a3.38 3.38 0 000 6.75h40a3.38 3.38 0 100-6.75zM113.56 183.22H73.61a3.38 3.38 0 000 6.75h40a3.38 3.38 0 100-6.75zM113.56 194.83H73.61a3.38 3.38 0 000 6.75h40a3.38 3.38 0 100-6.75zM113.56 206.43H73.61a3.38 3.38 0 000 6.75h40a3.38 3.38 0 100-6.75zM167.18 183.22h-39.94a3.38 3.38 0 100 6.75h39.94a3.38 3.38 0 100-6.75zM167.18 194.83h-39.94a3.38 3.38 0 100 6.75h39.94a3.38 3.38 0 100-6.75zM167.18 206.43h-39.94a3.38 3.38 0 100 6.75h39.94a3.38 3.38 0 100-6.75zM21 88.87h145.16a6.7 6.7 0 006.69-6.7V42.94a6.7 6.7 0 00-6.69-6.69h-64.7a3.38 3.38 0 000 6.75h64.65v39.12h-145V43h64.6a3.38 3.38 0 100-6.75H21a6.7 6.7 0 00-6.7 6.69v39.23a6.71 6.71 0 006.7 6.7zM163.46 122.35H131a7.12 7.12 0 00-7.11 7.11v40.95a7.12 7.12 0 007.11 7.1h32.49a7.11 7.11 0 007.1-7.1v-12.6a3.38 3.38 0 10-6.75 0v12.6a.35.35 0 01-.35.35H131a.36.36 0 01-.36-.35v-40.95a.36.36 0 01.36-.36h32.49a.36.36 0 01.35.36v12.6a3.38 3.38 0 006.75 0v-12.6a7.12 7.12 0 00-7.13-7.11z"/></g></g></svg>