<svg xmlns="http://www.w3.org/2000/svg" viewBox="0 0 324.06 232.92"><defs><style>.cls-1{fill:#1fc1e5}</style></defs><g id="Слой_2" data-name="Слой 2"><g id="Слой_1-2" data-name="Слой 1"><path class="cls-1" d="M298.74 0H25.32A25.35 25.35 0 000 25.32V207.6a25.35 25.35 0 0025.32 25.32h273.42a25.35 25.35 0 0025.32-25.32V25.32A25.35 25.35 0 00298.74 0zM10.13 207.6V40.51H76v182.28H25.32a15.21 15.21 0 01-15.19-15.19zm288.61 15.19H86.08V40.51h197.47a5.07 5.07 0 000-10.13H10.13v-5.06a15.2 15.2 0 0115.19-15.19h273.42a15.2 15.2 0 0115.19 15.19v5.06H303.8a5.07 5.07 0 000 10.13h10.13V207.6a15.21 15.21 0 01-15.19 15.19z"/><path class="cls-1" d="M25.32 15.19a5.05 5.05 0 103.58 1.48 5.15 5.15 0 00-3.58-1.48zM40.51 15.19a5.05 5.05 0 103.58 1.48 5.15 5.15 0 00-3.58-1.48zM55.7 15.19a5.05 5.05 0 103.58 1.48 5.15 5.15 0 00-3.58-1.48zM25.32 60.76h35.44a5.07 5.07 0 000-10.13H25.32a5.07 5.07 0 100 10.13zM60.76 70.89H25.32a5.06 5.06 0 100 10.12h35.44a5.06 5.06 0 000-10.12zM60.76 91.14H25.32a5.07 5.07 0 100 10.13h35.44a5.07 5.07 0 000-10.13zM45.57 111.39H25.32a5.07 5.07 0 100 10.13h20.25a5.07 5.07 0 000-10.13zM45.57 131.65H25.32a5.07 5.07 0 100 10.13h20.25a5.07 5.07 0 000-10.13zM30.38 151.9h-5.06a5.07 5.07 0 100 10.13h5.06a5.07 5.07 0 000-10.13zM136.71 106.33a25.12 25.12 0 0117.9 7.42 5.06 5.06 0 007.16-7.16 35.43 35.43 0 100 50.12 5.06 5.06 0 00-7.16-7.16 25.31 25.31 0 11-17.9-43.22zM207.61 144.73A25.32 25.32 0 00197.5 96.2h-20.28a5.06 5.06 0 00-5.06 5.07 4.1 4.1 0 000 .5V162a5.07 5.07 0 0010.13 0v-55.7h15.21a15.19 15.19 0 010 30.38 5.07 5.07 0 00-3.58 8.65l20.25 20.25a5.06 5.06 0 007.16-7.16zM289.91 96.37a5.06 5.06 0 00-5.7 2.44l-20.89 37.6-20.89-37.6a5.06 5.06 0 00-9.49 2.46V162a5.07 5.07 0 0010.13 0v-41.19l15.83 28.49a5.07 5.07 0 008.85 0l15.82-28.49V162a5.07 5.07 0 0010.13 0v-60.73a5.05 5.05 0 00-3.79-4.9z"/></g></g></svg>