<svg xmlns="http://www.w3.org/2000/svg" viewBox="0 0 133.74 230.34"><defs><style>.cls-1{fill:#1fc1e5}</style></defs><g id="Слой_2" data-name="Слой 2"><g id="Слой_1-2" data-name="Слой 1"><path class="cls-1" d="M48.3 208.05h-26a3.72 3.72 0 000 7.43h26a3.72 3.72 0 000-7.43zM63.16 208.05h-3.72a3.72 3.72 0 000 7.43h3.72a3.72 3.72 0 000-7.43z"/><path class="cls-1" d="M115.17 0H18.58A18.59 18.59 0 000 18.58v193.18a18.59 18.59 0 0018.58 18.58h96.59a18.59 18.59 0 0018.57-18.58V18.58A18.59 18.59 0 00115.17 0zM92.06 7.43l-2.23 11.15H43.91L41.68 7.43zm34.25 204.33a11.16 11.16 0 01-11.14 11.15H18.58a11.17 11.17 0 01-11.15-11.15V18.58A11.16 11.16 0 0118.58 7.43H34.1L37.23 23a3.71 3.71 0 003.64 3h52a3.71 3.71 0 003.64-3l3.13-15.57h15.53a11.15 11.15 0 0111.14 11.15v193.18z"/><path class="cls-1" d="M70.56 48.85A11.06 11.06 0 0059.5 59.91V71h-7.36v7.37h7.36v18.38h7.37V78.33h7.37V71h-7.37V60a3.69 3.69 0 117.37 0v3.68h7.37v-3.77a11.06 11.06 0 00-11.05-11.06z"/><path class="cls-1" d="M89 34.12H44.77A14.74 14.74 0 0030 48.85v47.9a14.73 14.73 0 0014.74 14.73H89a14.72 14.72 0 0014.73-14.73v-47.9A14.73 14.73 0 0089 34.12zm7.37 62.63a7.37 7.37 0 01-7.37 7.37H44.77a7.37 7.37 0 01-7.37-7.37v-47.9a7.36 7.36 0 017.37-7.36H89a7.36 7.36 0 017.37 7.36zM89 118.85H44.77A14.74 14.74 0 0030 133.59v47.89a14.74 14.74 0 0014.74 14.74H89a14.73 14.73 0 0014.73-14.74v-47.89A14.73 14.73 0 0089 118.85zm7.37 62.63a7.37 7.37 0 01-7.37 7.37H44.77a7.37 7.37 0 01-7.37-7.37v-47.89a7.37 7.37 0 017.37-7.37H89a7.37 7.37 0 017.37 7.37z"/><path class="cls-1" d="M81.61 129.91H89v7.36h-7.39zM66.87 137.27A22.11 22.11 0 1089 159.38a22.1 22.1 0 00-22.13-22.11zm0 36.85a14.74 14.74 0 1114.74-14.74 14.73 14.73 0 01-14.74 14.74z"/></g></g></svg>